<mxfile host="app.diagrams.net" agent="Mozilla/5.0 (Windows NT 10.0; Win64; x64) AppleWebKit/537.36 (KHTML, like Gecko) Chrome/129.0.0.0 Safari/537.36" version="24.8.0">
  <diagram name="Page-1" id="PfGuLVTqX8FZglcMBsxb">
    <mxGraphModel dx="875" dy="1672" grid="1" gridSize="10" guides="1" tooltips="1" connect="1" arrows="1" fold="1" page="1" pageScale="1" pageWidth="827" pageHeight="1169" math="0" shadow="0">
      <root>
        <mxCell id="0" />
        <mxCell id="1" parent="0" />
        <mxCell id="ZqTl72pwCuOuN0OfuVFF-19" value="" style="rounded=0;whiteSpace=wrap;html=1;" parent="1" vertex="1">
          <mxGeometry x="520" y="456.8" width="93" height="62" as="geometry" />
        </mxCell>
        <mxCell id="bguLub1_RLqBDySIkXRc-6" value="Osoba" style="rounded=0;whiteSpace=wrap;html=1;" parent="1" vertex="1">
          <mxGeometry x="50" y="-42.5" width="130" height="40" as="geometry" />
        </mxCell>
        <mxCell id="bguLub1_RLqBDySIkXRc-21" value="" style="endArrow=classic;html=1;rounded=0;exitX=0.534;exitY=1.032;exitDx=0;exitDy=0;exitPerimeter=0;entryX=0.5;entryY=0;entryDx=0;entryDy=0;" parent="1" source="bguLub1_RLqBDySIkXRc-6" target="bguLub1_RLqBDySIkXRc-18" edge="1">
          <mxGeometry width="50" height="50" relative="1" as="geometry">
            <mxPoint x="170" y="200" as="sourcePoint" />
            <mxPoint x="220" y="150" as="targetPoint" />
          </mxGeometry>
        </mxCell>
        <mxCell id="bguLub1_RLqBDySIkXRc-25" value="" style="group" parent="1" vertex="1" connectable="0">
          <mxGeometry x="60" y="320" width="130" height="60" as="geometry" />
        </mxCell>
        <mxCell id="bguLub1_RLqBDySIkXRc-24" value="" style="rounded=0;whiteSpace=wrap;html=1;" parent="bguLub1_RLqBDySIkXRc-25" vertex="1">
          <mxGeometry width="130" height="60" as="geometry" />
        </mxCell>
        <mxCell id="bguLub1_RLqBDySIkXRc-7" value="sudija" style="rounded=0;whiteSpace=wrap;html=1;" parent="bguLub1_RLqBDySIkXRc-25" vertex="1">
          <mxGeometry x="10" y="10" width="110" height="40" as="geometry" />
        </mxCell>
        <mxCell id="bguLub1_RLqBDySIkXRc-26" value="" style="group" parent="1" vertex="1" connectable="0">
          <mxGeometry x="400" y="-62.5" width="130" height="60" as="geometry" />
        </mxCell>
        <mxCell id="bguLub1_RLqBDySIkXRc-27" value="" style="rounded=0;whiteSpace=wrap;html=1;" parent="bguLub1_RLqBDySIkXRc-26" vertex="1">
          <mxGeometry width="130" height="60" as="geometry" />
        </mxCell>
        <mxCell id="bguLub1_RLqBDySIkXRc-28" value="Trener" style="rounded=0;whiteSpace=wrap;html=1;" parent="bguLub1_RLqBDySIkXRc-26" vertex="1">
          <mxGeometry x="10" y="10" width="110" height="40" as="geometry" />
        </mxCell>
        <mxCell id="bguLub1_RLqBDySIkXRc-29" value="" style="group" parent="1" vertex="1" connectable="0">
          <mxGeometry x="400" y="320" width="130" height="60" as="geometry" />
        </mxCell>
        <mxCell id="bguLub1_RLqBDySIkXRc-30" value="" style="rounded=0;whiteSpace=wrap;html=1;" parent="bguLub1_RLqBDySIkXRc-29" vertex="1">
          <mxGeometry width="130" height="60" as="geometry" />
        </mxCell>
        <mxCell id="bguLub1_RLqBDySIkXRc-31" value="Igrač" style="rounded=0;whiteSpace=wrap;html=1;" parent="bguLub1_RLqBDySIkXRc-29" vertex="1">
          <mxGeometry x="10" y="10" width="110" height="40" as="geometry" />
        </mxCell>
        <mxCell id="bguLub1_RLqBDySIkXRc-35" value="" style="endArrow=classic;html=1;rounded=0;exitX=0.949;exitY=0.481;exitDx=0;exitDy=0;shape=link;exitPerimeter=0;" parent="1" source="bguLub1_RLqBDySIkXRc-18" edge="1">
          <mxGeometry width="50" height="50" relative="1" as="geometry">
            <mxPoint x="172.5" y="203" as="sourcePoint" />
            <mxPoint x="452.5" y="8" as="targetPoint" />
            <Array as="points">
              <mxPoint x="452.5" y="198" />
            </Array>
          </mxGeometry>
        </mxCell>
        <mxCell id="bguLub1_RLqBDySIkXRc-36" value="" style="endArrow=classic;html=1;rounded=0;exitX=0.91;exitY=0.56;exitDx=0;exitDy=0;exitPerimeter=0;shape=link;entryX=0;entryY=0.5;entryDx=0;entryDy=0;" parent="1" edge="1">
          <mxGeometry width="50" height="50" relative="1" as="geometry">
            <mxPoint x="154" y="210.4000000000001" as="sourcePoint" />
            <mxPoint x="454.5" y="308.5" as="targetPoint" />
            <Array as="points">
              <mxPoint x="453" y="210" />
              <mxPoint x="453" y="220" />
            </Array>
          </mxGeometry>
        </mxCell>
        <mxCell id="bguLub1_RLqBDySIkXRc-37" value="Ima" style="rhombus;whiteSpace=wrap;html=1;" parent="1" vertex="1">
          <mxGeometry x="290" y="325" width="70" height="50" as="geometry" />
        </mxCell>
        <mxCell id="bguLub1_RLqBDySIkXRc-38" value="" style="endArrow=classic;html=1;rounded=0;entryX=0.327;entryY=-0.01;entryDx=0;entryDy=0;entryPerimeter=0;exitX=0.5;exitY=0;exitDx=0;exitDy=0;" parent="1" source="bguLub1_RLqBDySIkXRc-37" edge="1">
          <mxGeometry width="50" height="50" relative="1" as="geometry">
            <mxPoint x="318" y="325" as="sourcePoint" />
            <mxPoint x="435.51" y="319.4000000000001" as="targetPoint" />
            <Array as="points">
              <mxPoint x="325" y="300" />
              <mxPoint x="325" y="280" />
              <mxPoint x="436" y="280" />
            </Array>
          </mxGeometry>
        </mxCell>
        <mxCell id="bguLub1_RLqBDySIkXRc-39" value="" style="endArrow=classic;html=1;rounded=0;entryX=0.35;entryY=1.004;entryDx=0;entryDy=0;entryPerimeter=0;exitX=0.496;exitY=1.034;exitDx=0;exitDy=0;exitPerimeter=0;" parent="1" source="bguLub1_RLqBDySIkXRc-37" edge="1">
          <mxGeometry width="50" height="50" relative="1" as="geometry">
            <mxPoint x="315" y="375" as="sourcePoint" />
            <mxPoint x="435.5" y="380.24" as="targetPoint" />
            <Array as="points">
              <mxPoint x="325" y="410" />
              <mxPoint x="436" y="410" />
            </Array>
          </mxGeometry>
        </mxCell>
        <mxCell id="bguLub1_RLqBDySIkXRc-40" value="Kapiten" style="text;html=1;align=center;verticalAlign=middle;resizable=0;points=[];autosize=1;strokeColor=none;fillColor=none;" parent="1" vertex="1">
          <mxGeometry x="354" y="256" width="60" height="30" as="geometry" />
        </mxCell>
        <mxCell id="bguLub1_RLqBDySIkXRc-41" value="Saigrač" style="text;html=1;align=center;verticalAlign=middle;resizable=0;points=[];autosize=1;strokeColor=none;fillColor=none;" parent="1" vertex="1">
          <mxGeometry x="354" y="405" width="60" height="30" as="geometry" />
        </mxCell>
        <mxCell id="bguLub1_RLqBDySIkXRc-42" value="Povreda" style="rounded=0;whiteSpace=wrap;html=1;" parent="1" vertex="1">
          <mxGeometry x="180" y="482.5" width="130" height="40" as="geometry" />
        </mxCell>
        <mxCell id="XA_54IxqnKkXPmQBRb8S-4" style="edgeStyle=orthogonalEdgeStyle;rounded=0;orthogonalLoop=1;jettySize=auto;html=1;entryX=0.615;entryY=1.003;entryDx=0;entryDy=0;entryPerimeter=0;" parent="1" source="bguLub1_RLqBDySIkXRc-43" target="bguLub1_RLqBDySIkXRc-30" edge="1">
          <mxGeometry relative="1" as="geometry">
            <mxPoint x="480" y="390" as="targetPoint" />
            <Array as="points">
              <mxPoint x="480" y="503" />
            </Array>
          </mxGeometry>
        </mxCell>
        <mxCell id="bguLub1_RLqBDySIkXRc-43" value="Zadobija" style="rhombus;whiteSpace=wrap;html=1;" parent="1" vertex="1">
          <mxGeometry x="350" y="470" width="90" height="65" as="geometry" />
        </mxCell>
        <mxCell id="bguLub1_RLqBDySIkXRc-45" value="" style="endArrow=classic;html=1;rounded=0;exitX=0;exitY=0.5;exitDx=0;exitDy=0;entryX=1.022;entryY=0.518;entryDx=0;entryDy=0;entryPerimeter=0;" parent="1" source="bguLub1_RLqBDySIkXRc-43" edge="1">
          <mxGeometry width="50" height="50" relative="1" as="geometry">
            <mxPoint x="347.14" y="502.1399999999999" as="sourcePoint" />
            <mxPoint x="310" y="502.8599999999999" as="targetPoint" />
          </mxGeometry>
        </mxCell>
        <mxCell id="bguLub1_RLqBDySIkXRc-47" value="Utakmica" style="rounded=0;whiteSpace=wrap;html=1;" parent="1" vertex="1">
          <mxGeometry x="480" y="610" width="170" height="40" as="geometry" />
        </mxCell>
        <mxCell id="bguLub1_RLqBDySIkXRc-356" style="edgeStyle=orthogonalEdgeStyle;rounded=0;orthogonalLoop=1;jettySize=auto;html=1;fontFamily=Helvetica;fontSize=12;fontColor=default;entryX=0.453;entryY=1.031;entryDx=0;entryDy=0;entryPerimeter=0;" parent="1" source="bguLub1_RLqBDySIkXRc-49" target="bguLub1_RLqBDySIkXRc-24" edge="1">
          <mxGeometry relative="1" as="geometry">
            <mxPoint x="150.0000000000001" y="400" as="targetPoint" />
          </mxGeometry>
        </mxCell>
        <mxCell id="bguLub1_RLqBDySIkXRc-49" value="Sudi" style="rhombus;whiteSpace=wrap;html=1;align=center;" parent="1" vertex="1">
          <mxGeometry x="75" y="597.5" width="90" height="65" as="geometry" />
        </mxCell>
        <mxCell id="bguLub1_RLqBDySIkXRc-51" value="" style="endArrow=classic;html=1;rounded=0;exitX=1;exitY=0.5;exitDx=0;exitDy=0;" parent="1" source="bguLub1_RLqBDySIkXRc-49" edge="1">
          <mxGeometry width="50" height="50" relative="1" as="geometry">
            <mxPoint x="450" y="680" as="sourcePoint" />
            <mxPoint x="480" y="630" as="targetPoint" />
          </mxGeometry>
        </mxCell>
        <mxCell id="bguLub1_RLqBDySIkXRc-53" value="Arena" style="rounded=0;whiteSpace=wrap;html=1;" parent="1" vertex="1">
          <mxGeometry x="710" y="800" width="130" height="40" as="geometry" />
        </mxCell>
        <mxCell id="bguLub1_RLqBDySIkXRc-54" value="Sezona" style="rounded=0;whiteSpace=wrap;html=1;" parent="1" vertex="1">
          <mxGeometry x="270" y="800" width="130" height="40" as="geometry" />
        </mxCell>
        <mxCell id="bguLub1_RLqBDySIkXRc-55" value="Održava" style="rhombus;whiteSpace=wrap;html=1;align=center;" parent="1" vertex="1">
          <mxGeometry x="710" y="700" width="90" height="65" as="geometry" />
        </mxCell>
        <mxCell id="bguLub1_RLqBDySIkXRc-56" value="Obuhvata" style="rhombus;whiteSpace=wrap;html=1;align=center;" parent="1" vertex="1">
          <mxGeometry x="310" y="700" width="90" height="65" as="geometry" />
        </mxCell>
        <mxCell id="bguLub1_RLqBDySIkXRc-57" value="" style="endArrow=classic;html=1;rounded=0;exitX=0.5;exitY=0;exitDx=0;exitDy=0;entryX=0.152;entryY=1.024;entryDx=0;entryDy=0;entryPerimeter=0;" parent="1" source="bguLub1_RLqBDySIkXRc-56" target="bguLub1_RLqBDySIkXRc-47" edge="1">
          <mxGeometry width="50" height="50" relative="1" as="geometry">
            <mxPoint x="450" y="700" as="sourcePoint" />
            <mxPoint x="500" y="650" as="targetPoint" />
            <Array as="points">
              <mxPoint x="355" y="670" />
              <mxPoint x="506" y="670" />
            </Array>
          </mxGeometry>
        </mxCell>
        <mxCell id="bguLub1_RLqBDySIkXRc-58" value="" style="endArrow=classic;html=1;rounded=0;exitX=0.5;exitY=1;exitDx=0;exitDy=0;entryX=0.645;entryY=-0.012;entryDx=0;entryDy=0;entryPerimeter=0;" parent="1" source="bguLub1_RLqBDySIkXRc-56" target="bguLub1_RLqBDySIkXRc-54" edge="1">
          <mxGeometry width="50" height="50" relative="1" as="geometry">
            <mxPoint x="310" y="850" as="sourcePoint" />
            <mxPoint x="360" y="800" as="targetPoint" />
          </mxGeometry>
        </mxCell>
        <mxCell id="bguLub1_RLqBDySIkXRc-59" value="" style="endArrow=classic;html=1;rounded=0;exitX=0.5;exitY=1;exitDx=0;exitDy=0;entryX=0.645;entryY=-0.012;entryDx=0;entryDy=0;entryPerimeter=0;" parent="1" edge="1">
          <mxGeometry width="50" height="50" relative="1" as="geometry">
            <mxPoint x="755.5" y="765" as="sourcePoint" />
            <mxPoint x="754.5" y="800" as="targetPoint" />
          </mxGeometry>
        </mxCell>
        <mxCell id="bguLub1_RLqBDySIkXRc-60" value="" style="endArrow=classic;html=1;rounded=0;exitX=0.5;exitY=0;exitDx=0;exitDy=0;entryX=0.152;entryY=1.024;entryDx=0;entryDy=0;entryPerimeter=0;" parent="1" source="bguLub1_RLqBDySIkXRc-55" edge="1">
          <mxGeometry width="50" height="50" relative="1" as="geometry">
            <mxPoint x="634.5" y="690" as="sourcePoint" />
            <mxPoint x="635.5" y="651" as="targetPoint" />
            <Array as="points">
              <mxPoint x="755" y="670" />
              <mxPoint x="636" y="670" />
            </Array>
          </mxGeometry>
        </mxCell>
        <mxCell id="bguLub1_RLqBDySIkXRc-77" value="Tim" style="rounded=0;whiteSpace=wrap;html=1;" parent="1" vertex="1">
          <mxGeometry x="910" y="610" width="130" height="40" as="geometry" />
        </mxCell>
        <mxCell id="bguLub1_RLqBDySIkXRc-84" style="edgeStyle=orthogonalEdgeStyle;rounded=0;orthogonalLoop=1;jettySize=auto;html=1;entryX=1;entryY=0.5;entryDx=0;entryDy=0;exitX=1;exitY=0.5;exitDx=0;exitDy=0;" parent="1" source="bguLub1_RLqBDySIkXRc-82" target="bguLub1_RLqBDySIkXRc-77" edge="1">
          <mxGeometry relative="1" as="geometry">
            <Array as="points">
              <mxPoint x="1340" y="-32" />
              <mxPoint x="1340" y="630" />
            </Array>
          </mxGeometry>
        </mxCell>
        <mxCell id="bguLub1_RLqBDySIkXRc-136" style="edgeStyle=orthogonalEdgeStyle;rounded=0;orthogonalLoop=1;jettySize=auto;html=1;entryX=1;entryY=0.5;entryDx=0;entryDy=0;" parent="1" source="bguLub1_RLqBDySIkXRc-82" target="bguLub1_RLqBDySIkXRc-27" edge="1">
          <mxGeometry relative="1" as="geometry" />
        </mxCell>
        <mxCell id="bguLub1_RLqBDySIkXRc-82" value="Vodi" style="rhombus;whiteSpace=wrap;html=1;" parent="1" vertex="1">
          <mxGeometry x="690" y="-65" width="90" height="65" as="geometry" />
        </mxCell>
        <mxCell id="bguLub1_RLqBDySIkXRc-85" value="Transfer" style="rounded=0;whiteSpace=wrap;html=1;" parent="1" vertex="1">
          <mxGeometry x="1176" y="120" width="130" height="40" as="geometry" />
        </mxCell>
        <mxCell id="bguLub1_RLqBDySIkXRc-86" value="Trening" style="rounded=0;whiteSpace=wrap;html=1;" parent="1" vertex="1">
          <mxGeometry x="1040" y="10" width="130" height="40" as="geometry" />
        </mxCell>
        <mxCell id="bguLub1_RLqBDySIkXRc-91" style="edgeStyle=orthogonalEdgeStyle;rounded=0;orthogonalLoop=1;jettySize=auto;html=1;" parent="1" source="bguLub1_RLqBDySIkXRc-87" edge="1">
          <mxGeometry relative="1" as="geometry">
            <mxPoint x="530" y="355" as="targetPoint" />
            <Array as="points">
              <mxPoint x="660" y="355" />
              <mxPoint x="660" y="355" />
            </Array>
          </mxGeometry>
        </mxCell>
        <mxCell id="bguLub1_RLqBDySIkXRc-92" style="edgeStyle=orthogonalEdgeStyle;rounded=0;orthogonalLoop=1;jettySize=auto;html=1;" parent="1" source="bguLub1_RLqBDySIkXRc-87" edge="1">
          <mxGeometry relative="1" as="geometry">
            <mxPoint x="999" y="610" as="targetPoint" />
          </mxGeometry>
        </mxCell>
        <mxCell id="bguLub1_RLqBDySIkXRc-97" style="edgeStyle=orthogonalEdgeStyle;rounded=0;orthogonalLoop=1;jettySize=auto;html=1;entryX=0.458;entryY=1.047;entryDx=0;entryDy=0;entryPerimeter=0;" parent="1" source="bguLub1_RLqBDySIkXRc-88" target="bguLub1_RLqBDySIkXRc-85" edge="1">
          <mxGeometry relative="1" as="geometry">
            <mxPoint x="1235" y="170" as="targetPoint" />
          </mxGeometry>
        </mxCell>
        <mxCell id="bguLub1_RLqBDySIkXRc-105" style="edgeStyle=orthogonalEdgeStyle;rounded=0;orthogonalLoop=1;jettySize=auto;html=1;exitX=0.5;exitY=1;exitDx=0;exitDy=0;entryX=1;entryY=0.25;entryDx=0;entryDy=0;" parent="1" target="bguLub1_RLqBDySIkXRc-30" edge="1">
          <mxGeometry relative="1" as="geometry">
            <mxPoint x="550" y="320" as="targetPoint" />
            <mxPoint x="1235" y="269.96" as="sourcePoint" />
            <Array as="points">
              <mxPoint x="1235" y="300" />
              <mxPoint x="660" y="300" />
              <mxPoint x="660" y="335" />
            </Array>
          </mxGeometry>
        </mxCell>
        <mxCell id="bguLub1_RLqBDySIkXRc-88" value="Vrši" style="rhombus;whiteSpace=wrap;html=1;align=center;" parent="1" vertex="1">
          <mxGeometry x="1190" y="235" width="90" height="65" as="geometry" />
        </mxCell>
        <mxCell id="bguLub1_RLqBDySIkXRc-94" style="edgeStyle=orthogonalEdgeStyle;rounded=0;orthogonalLoop=1;jettySize=auto;html=1;entryX=1;entryY=0.75;entryDx=0;entryDy=0;" parent="1" source="bguLub1_RLqBDySIkXRc-89" target="bguLub1_RLqBDySIkXRc-27" edge="1">
          <mxGeometry relative="1" as="geometry" />
        </mxCell>
        <mxCell id="bguLub1_RLqBDySIkXRc-95" style="edgeStyle=orthogonalEdgeStyle;rounded=0;orthogonalLoop=1;jettySize=auto;html=1;entryX=0;entryY=0.5;entryDx=0;entryDy=0;" parent="1" source="bguLub1_RLqBDySIkXRc-89" target="bguLub1_RLqBDySIkXRc-86" edge="1">
          <mxGeometry relative="1" as="geometry" />
        </mxCell>
        <mxCell id="bguLub1_RLqBDySIkXRc-89" value="Organizuje" style="rhombus;whiteSpace=wrap;html=1;align=center;" parent="1" vertex="1">
          <mxGeometry x="690" y="70" width="90" height="65" as="geometry" />
        </mxCell>
        <mxCell id="bguLub1_RLqBDySIkXRc-143" style="edgeStyle=orthogonalEdgeStyle;rounded=0;orthogonalLoop=1;jettySize=auto;html=1;exitX=0;exitY=0.5;exitDx=0;exitDy=0;" parent="1" edge="1">
          <mxGeometry relative="1" as="geometry">
            <mxPoint x="690" y="223.50000000000023" as="sourcePoint" />
            <mxPoint x="530" y="324" as="targetPoint" />
            <Array as="points">
              <mxPoint x="690" y="226" />
              <mxPoint x="530" y="226" />
            </Array>
          </mxGeometry>
        </mxCell>
        <mxCell id="bguLub1_RLqBDySIkXRc-93" value="Dolazi" style="rhombus;whiteSpace=wrap;html=1;align=center;" parent="1" vertex="1">
          <mxGeometry x="690" y="195" width="90" height="65" as="geometry" />
        </mxCell>
        <mxCell id="bguLub1_RLqBDySIkXRc-96" style="edgeStyle=orthogonalEdgeStyle;rounded=0;orthogonalLoop=1;jettySize=auto;html=1;entryX=0.152;entryY=1.078;entryDx=0;entryDy=0;entryPerimeter=0;" parent="1" source="bguLub1_RLqBDySIkXRc-93" target="bguLub1_RLqBDySIkXRc-86" edge="1">
          <mxGeometry relative="1" as="geometry" />
        </mxCell>
        <mxCell id="bguLub1_RLqBDySIkXRc-99" value="" style="group" parent="1" vertex="1" connectable="0">
          <mxGeometry x="690" y="320" width="90" height="70" as="geometry" />
        </mxCell>
        <mxCell id="bguLub1_RLqBDySIkXRc-87" value="Pripada" style="rhombus;whiteSpace=wrap;html=1;align=center;" parent="bguLub1_RLqBDySIkXRc-99" vertex="1">
          <mxGeometry width="90" height="70" as="geometry" />
        </mxCell>
        <mxCell id="bguLub1_RLqBDySIkXRc-108" value="" style="group" parent="1" vertex="1" connectable="0">
          <mxGeometry x="520" y="456.3" width="93" height="62.5" as="geometry" />
        </mxCell>
        <mxCell id="bguLub1_RLqBDySIkXRc-78" value="Igra" style="rhombus;whiteSpace=wrap;html=1;align=center;" parent="bguLub1_RLqBDySIkXRc-108" vertex="1">
          <mxGeometry width="90" height="62.5" as="geometry" />
        </mxCell>
        <mxCell id="bguLub1_RLqBDySIkXRc-116" value="(1,1)" style="text;html=1;align=center;verticalAlign=middle;resizable=0;points=[];autosize=1;strokeColor=none;fillColor=none;" parent="1" vertex="1">
          <mxGeometry x="115" width="50" height="30" as="geometry" />
        </mxCell>
        <mxCell id="bguLub1_RLqBDySIkXRc-117" value="(0,N)" style="text;html=1;align=center;verticalAlign=middle;resizable=0;points=[];autosize=1;strokeColor=none;fillColor=none;" parent="1" vertex="1">
          <mxGeometry x="66" y="382.5" width="50" height="30" as="geometry" />
        </mxCell>
        <mxCell id="bguLub1_RLqBDySIkXRc-118" value="(1,N)" style="text;html=1;align=center;verticalAlign=middle;resizable=0;points=[];autosize=1;strokeColor=none;fillColor=none;" parent="1" vertex="1">
          <mxGeometry x="430" y="597.5" width="50" height="30" as="geometry" />
        </mxCell>
        <mxCell id="bguLub1_RLqBDySIkXRc-119" value="(1,1)" style="text;html=1;align=center;verticalAlign=middle;resizable=0;points=[];autosize=1;strokeColor=none;fillColor=none;" parent="1" vertex="1">
          <mxGeometry x="460" y="670" width="50" height="30" as="geometry" />
        </mxCell>
        <mxCell id="bguLub1_RLqBDySIkXRc-120" value="(0,N)" style="text;html=1;align=center;verticalAlign=middle;resizable=0;points=[];autosize=1;strokeColor=none;fillColor=none;" parent="1" vertex="1">
          <mxGeometry x="354" y="770" width="50" height="30" as="geometry" />
        </mxCell>
        <mxCell id="bguLub1_RLqBDySIkXRc-121" value="(1,1)" style="text;html=1;align=center;verticalAlign=middle;resizable=0;points=[];autosize=1;strokeColor=none;fillColor=none;" parent="1" vertex="1">
          <mxGeometry x="630" y="644" width="50" height="30" as="geometry" />
        </mxCell>
        <mxCell id="bguLub1_RLqBDySIkXRc-122" value="(0,N)" style="text;html=1;align=center;verticalAlign=middle;resizable=0;points=[];autosize=1;strokeColor=none;fillColor=none;" parent="1" vertex="1">
          <mxGeometry x="705" y="770" width="50" height="30" as="geometry" />
        </mxCell>
        <mxCell id="bguLub1_RLqBDySIkXRc-129" value="(0,1)" style="text;html=1;align=center;verticalAlign=middle;resizable=0;points=[];autosize=1;strokeColor=none;fillColor=none;" parent="1" vertex="1">
          <mxGeometry x="1040" y="599.5" width="50" height="30" as="geometry" />
        </mxCell>
        <mxCell id="bguLub1_RLqBDySIkXRc-130" value="(0,N)" style="text;html=1;align=center;verticalAlign=middle;resizable=0;points=[];autosize=1;strokeColor=none;fillColor=none;" parent="1" vertex="1">
          <mxGeometry x="990" y="580" width="50" height="30" as="geometry" />
        </mxCell>
        <mxCell id="bguLub1_RLqBDySIkXRc-131" value="(1,1)" style="text;html=1;align=center;verticalAlign=middle;resizable=0;points=[];autosize=1;strokeColor=none;fillColor=none;" parent="1" vertex="1">
          <mxGeometry x="1230" y="160" width="50" height="30" as="geometry" />
        </mxCell>
        <mxCell id="bguLub1_RLqBDySIkXRc-132" value="(0,N)" style="text;html=1;align=center;verticalAlign=middle;resizable=0;points=[];autosize=1;strokeColor=none;fillColor=none;" parent="1" vertex="1">
          <mxGeometry x="527.5" y="310" width="50" height="30" as="geometry" />
        </mxCell>
        <mxCell id="bguLub1_RLqBDySIkXRc-133" value="(0,1)" style="text;html=1;align=center;verticalAlign=middle;resizable=0;points=[];autosize=1;strokeColor=none;fillColor=none;" parent="1" vertex="1">
          <mxGeometry x="990" y="-2.5" width="50" height="30" as="geometry" />
        </mxCell>
        <mxCell id="bguLub1_RLqBDySIkXRc-134" value="(0,N)" style="text;html=1;align=center;verticalAlign=middle;resizable=0;points=[];autosize=1;strokeColor=none;fillColor=none;" parent="1" vertex="1">
          <mxGeometry x="1060" y="51" width="50" height="30" as="geometry" />
        </mxCell>
        <mxCell id="bguLub1_RLqBDySIkXRc-135" value="(0,N)" style="text;html=1;align=center;verticalAlign=middle;resizable=0;points=[];autosize=1;strokeColor=none;fillColor=none;" parent="1" vertex="1">
          <mxGeometry x="525" y="-22" width="50" height="30" as="geometry" />
        </mxCell>
        <mxCell id="bguLub1_RLqBDySIkXRc-137" value="(0,N)" style="text;html=1;align=center;verticalAlign=middle;resizable=0;points=[];autosize=1;strokeColor=none;fillColor=none;" parent="1" vertex="1">
          <mxGeometry x="520" y="274" width="50" height="30" as="geometry" />
        </mxCell>
        <mxCell id="bguLub1_RLqBDySIkXRc-138" value="(0,1)" style="text;html=1;align=center;verticalAlign=middle;resizable=0;points=[];autosize=1;strokeColor=none;fillColor=none;" parent="1" vertex="1">
          <mxGeometry x="530" y="-63" width="50" height="30" as="geometry" />
        </mxCell>
        <mxCell id="bguLub1_RLqBDySIkXRc-140" value="(0,N)" style="text;html=1;align=center;verticalAlign=middle;resizable=0;points=[];autosize=1;strokeColor=none;fillColor=none;" parent="1" vertex="1">
          <mxGeometry x="310" y="470" width="50" height="30" as="geometry" />
        </mxCell>
        <mxCell id="bguLub1_RLqBDySIkXRc-141" value="(0,1)" style="text;html=1;align=center;verticalAlign=middle;resizable=0;points=[];autosize=1;strokeColor=none;fillColor=none;" parent="1" vertex="1">
          <mxGeometry x="525" y="330" width="50" height="30" as="geometry" />
        </mxCell>
        <mxCell id="bguLub1_RLqBDySIkXRc-146" value="(0,N)" style="text;html=1;align=center;verticalAlign=middle;resizable=0;points=[];autosize=1;strokeColor=none;fillColor=none;" parent="1" vertex="1">
          <mxGeometry x="391" y="290" width="50" height="30" as="geometry" />
        </mxCell>
        <mxCell id="bguLub1_RLqBDySIkXRc-147" value="(0,1)" style="text;html=1;align=center;verticalAlign=middle;resizable=0;points=[];autosize=1;strokeColor=none;fillColor=none;" parent="1" vertex="1">
          <mxGeometry x="386" y="375" width="50" height="30" as="geometry" />
        </mxCell>
        <mxCell id="bguLub1_RLqBDySIkXRc-158" value="" style="group" parent="1" vertex="1" connectable="0">
          <mxGeometry x="40" y="-84.5" width="190" height="22" as="geometry" />
        </mxCell>
        <mxCell id="bguLub1_RLqBDySIkXRc-151" value="&lt;u&gt;IdO&lt;/u&gt;" style="ellipse;whiteSpace=wrap;html=1;" parent="bguLub1_RLqBDySIkXRc-158" vertex="1">
          <mxGeometry width="40" height="22" as="geometry" />
        </mxCell>
        <mxCell id="bguLub1_RLqBDySIkXRc-152" value="Ime" style="ellipse;whiteSpace=wrap;html=1;" parent="bguLub1_RLqBDySIkXRc-158" vertex="1">
          <mxGeometry x="50" width="40" height="22" as="geometry" />
        </mxCell>
        <mxCell id="bguLub1_RLqBDySIkXRc-153" value="Prz" style="ellipse;whiteSpace=wrap;html=1;" parent="bguLub1_RLqBDySIkXRc-158" vertex="1">
          <mxGeometry x="100" width="40" height="22" as="geometry" />
        </mxCell>
        <mxCell id="bguLub1_RLqBDySIkXRc-155" value="Nac" style="ellipse;whiteSpace=wrap;html=1;" parent="bguLub1_RLqBDySIkXRc-158" vertex="1">
          <mxGeometry x="150" width="40" height="22" as="geometry" />
        </mxCell>
        <mxCell id="bguLub1_RLqBDySIkXRc-159" value="" style="endArrow=none;html=1;rounded=0;exitX=0.086;exitY=-0.043;exitDx=0;exitDy=0;exitPerimeter=0;" parent="1" source="bguLub1_RLqBDySIkXRc-6" edge="1">
          <mxGeometry width="50" height="50" relative="1" as="geometry">
            <mxPoint x="10" y="-12.5" as="sourcePoint" />
            <mxPoint x="60" y="-62.5" as="targetPoint" />
          </mxGeometry>
        </mxCell>
        <mxCell id="bguLub1_RLqBDySIkXRc-160" value="" style="endArrow=none;html=1;rounded=0;" parent="1" edge="1">
          <mxGeometry width="50" height="50" relative="1" as="geometry">
            <mxPoint x="110" y="-44" as="sourcePoint" />
            <mxPoint x="110" y="-62.5" as="targetPoint" />
          </mxGeometry>
        </mxCell>
        <mxCell id="bguLub1_RLqBDySIkXRc-161" value="" style="endArrow=none;html=1;rounded=0;exitX=0.837;exitY=-0.014;exitDx=0;exitDy=0;exitPerimeter=0;" parent="1" source="bguLub1_RLqBDySIkXRc-6" edge="1">
          <mxGeometry width="50" height="50" relative="1" as="geometry">
            <mxPoint x="161" y="-44.5" as="sourcePoint" />
            <mxPoint x="160" y="-63" as="targetPoint" />
          </mxGeometry>
        </mxCell>
        <mxCell id="bguLub1_RLqBDySIkXRc-162" value="" style="endArrow=none;html=1;rounded=0;exitX=0.086;exitY=-0.043;exitDx=0;exitDy=0;exitPerimeter=0;entryX=0.232;entryY=0.909;entryDx=0;entryDy=0;entryPerimeter=0;" parent="1" target="bguLub1_RLqBDySIkXRc-155" edge="1">
          <mxGeometry width="50" height="50" relative="1" as="geometry">
            <mxPoint x="181" y="-42.5" as="sourcePoint" />
            <mxPoint x="180" y="-61" as="targetPoint" />
          </mxGeometry>
        </mxCell>
        <mxCell id="bguLub1_RLqBDySIkXRc-168" value="" style="ellipse;whiteSpace=wrap;html=1;pointerEvents=0;align=center;verticalAlign=top;fontFamily=Helvetica;fontSize=12;fontColor=default;fillColor=none;gradientColor=none;fontStyle=4" parent="1" vertex="1">
          <mxGeometry x="145.5" y="286" width="29" height="18" as="geometry" />
        </mxCell>
        <mxCell id="bguLub1_RLqBDySIkXRc-181" value="&lt;u&gt;IdS&lt;/u&gt;" style="text;html=1;align=center;verticalAlign=middle;resizable=0;points=[];autosize=1;strokeColor=none;fillColor=none;fontFamily=Helvetica;fontSize=12;fontColor=default;" parent="1" vertex="1">
          <mxGeometry x="140" y="280" width="40" height="30" as="geometry" />
        </mxCell>
        <mxCell id="bguLub1_RLqBDySIkXRc-187" value="" style="group" parent="1" vertex="1" connectable="0">
          <mxGeometry x="180" y="280" width="45" height="30" as="geometry" />
        </mxCell>
        <mxCell id="bguLub1_RLqBDySIkXRc-184" value="" style="ellipse;whiteSpace=wrap;html=1;pointerEvents=0;align=center;verticalAlign=top;fontFamily=Helvetica;fontSize=12;fontColor=default;fillColor=none;gradientColor=none;fontStyle=4" parent="bguLub1_RLqBDySIkXRc-187" vertex="1">
          <mxGeometry x="5.5" y="6" width="29" height="18" as="geometry" />
        </mxCell>
        <mxCell id="bguLub1_RLqBDySIkXRc-185" value="IskS" style="text;html=1;align=center;verticalAlign=middle;resizable=0;points=[];autosize=1;strokeColor=none;fillColor=none;fontFamily=Helvetica;fontSize=12;fontColor=default;" parent="bguLub1_RLqBDySIkXRc-187" vertex="1">
          <mxGeometry x="-5" width="50" height="30" as="geometry" />
        </mxCell>
        <mxCell id="bguLub1_RLqBDySIkXRc-188" value="" style="endArrow=none;html=1;rounded=0;fontFamily=Helvetica;fontSize=12;fontColor=default;exitX=1;exitY=0;exitDx=0;exitDy=0;entryX=0.25;entryY=0.667;entryDx=0;entryDy=0;entryPerimeter=0;" parent="1" source="bguLub1_RLqBDySIkXRc-24" target="bguLub1_RLqBDySIkXRc-185" edge="1">
          <mxGeometry width="50" height="50" relative="1" as="geometry">
            <mxPoint x="150" y="350" as="sourcePoint" />
            <mxPoint x="200" y="300" as="targetPoint" />
          </mxGeometry>
        </mxCell>
        <mxCell id="bguLub1_RLqBDySIkXRc-189" value="" style="endArrow=none;html=1;rounded=0;fontFamily=Helvetica;fontSize=12;fontColor=default;entryX=0.75;entryY=0.667;entryDx=0;entryDy=0;entryPerimeter=0;" parent="1" target="bguLub1_RLqBDySIkXRc-181" edge="1">
          <mxGeometry width="50" height="50" relative="1" as="geometry">
            <mxPoint x="170" y="320" as="sourcePoint" />
            <mxPoint x="220" y="270" as="targetPoint" />
          </mxGeometry>
        </mxCell>
        <mxCell id="bguLub1_RLqBDySIkXRc-193" value="" style="group" parent="1" vertex="1" connectable="0">
          <mxGeometry x="391" y="-110" width="45" height="30" as="geometry" />
        </mxCell>
        <mxCell id="bguLub1_RLqBDySIkXRc-194" value="" style="ellipse;whiteSpace=wrap;html=1;pointerEvents=0;align=center;verticalAlign=top;fontFamily=Helvetica;fontSize=12;fontColor=default;fillColor=none;gradientColor=none;fontStyle=4" parent="bguLub1_RLqBDySIkXRc-193" vertex="1">
          <mxGeometry x="5.5" y="6" width="29" height="18" as="geometry" />
        </mxCell>
        <mxCell id="bguLub1_RLqBDySIkXRc-195" value="&lt;u&gt;IdT&lt;/u&gt;" style="text;html=1;align=center;verticalAlign=middle;resizable=0;points=[];autosize=1;strokeColor=none;fillColor=none;fontFamily=Helvetica;fontSize=12;fontColor=default;" parent="bguLub1_RLqBDySIkXRc-193" vertex="1">
          <mxGeometry width="40" height="30" as="geometry" />
        </mxCell>
        <mxCell id="bguLub1_RLqBDySIkXRc-199" value="" style="endArrow=none;html=1;rounded=0;fontFamily=Helvetica;fontSize=12;fontColor=default;exitX=0.081;exitY=0.005;exitDx=0;exitDy=0;exitPerimeter=0;" parent="bguLub1_RLqBDySIkXRc-193" source="bguLub1_RLqBDySIkXRc-27" edge="1">
          <mxGeometry width="50" height="50" relative="1" as="geometry">
            <mxPoint x="-31" y="74" as="sourcePoint" />
            <mxPoint x="19" y="24" as="targetPoint" />
          </mxGeometry>
        </mxCell>
        <mxCell id="bguLub1_RLqBDySIkXRc-196" value="" style="group" parent="1" vertex="1" connectable="0">
          <mxGeometry x="430" y="-110" width="45" height="30" as="geometry" />
        </mxCell>
        <mxCell id="bguLub1_RLqBDySIkXRc-197" value="" style="ellipse;whiteSpace=wrap;html=1;pointerEvents=0;align=center;verticalAlign=top;fontFamily=Helvetica;fontSize=12;fontColor=default;fillColor=none;gradientColor=none;fontStyle=4" parent="bguLub1_RLqBDySIkXRc-196" vertex="1">
          <mxGeometry x="5.5" y="6" width="29" height="18" as="geometry" />
        </mxCell>
        <mxCell id="bguLub1_RLqBDySIkXRc-198" value="IskT" style="text;html=1;align=center;verticalAlign=middle;resizable=0;points=[];autosize=1;strokeColor=none;fillColor=none;fontFamily=Helvetica;fontSize=12;fontColor=default;" parent="bguLub1_RLqBDySIkXRc-196" vertex="1">
          <mxGeometry x="-5" width="50" height="30" as="geometry" />
        </mxCell>
        <mxCell id="bguLub1_RLqBDySIkXRc-200" value="" style="endArrow=none;html=1;rounded=0;fontFamily=Helvetica;fontSize=12;fontColor=default;exitX=0.081;exitY=0.005;exitDx=0;exitDy=0;exitPerimeter=0;" parent="bguLub1_RLqBDySIkXRc-196" edge="1">
          <mxGeometry width="50" height="50" relative="1" as="geometry">
            <mxPoint x="20.5" y="48" as="sourcePoint" />
            <mxPoint x="19.5" y="24" as="targetPoint" />
          </mxGeometry>
        </mxCell>
        <mxCell id="bguLub1_RLqBDySIkXRc-202" value="" style="group" parent="1" vertex="1" connectable="0">
          <mxGeometry x="200" y="-60" width="45" height="30" as="geometry" />
        </mxCell>
        <mxCell id="bguLub1_RLqBDySIkXRc-203" value="" style="ellipse;whiteSpace=wrap;html=1;pointerEvents=0;align=center;verticalAlign=top;fontFamily=Helvetica;fontSize=12;fontColor=default;fillColor=none;gradientColor=none;fontStyle=4" parent="bguLub1_RLqBDySIkXRc-202" vertex="1">
          <mxGeometry x="5.5" y="6" width="29" height="18" as="geometry" />
        </mxCell>
        <mxCell id="bguLub1_RLqBDySIkXRc-204" value="Plt" style="text;html=1;align=center;verticalAlign=middle;resizable=0;points=[];autosize=1;strokeColor=none;fillColor=none;fontFamily=Helvetica;fontSize=12;fontColor=default;" parent="bguLub1_RLqBDySIkXRc-202" vertex="1">
          <mxGeometry width="40" height="30" as="geometry" />
        </mxCell>
        <mxCell id="bguLub1_RLqBDySIkXRc-205" value="" style="endArrow=none;html=1;rounded=0;fontFamily=Helvetica;fontSize=12;fontColor=default;exitX=1;exitY=0.25;exitDx=0;exitDy=0;" parent="bguLub1_RLqBDySIkXRc-202" source="bguLub1_RLqBDySIkXRc-6" edge="1">
          <mxGeometry width="50" height="50" relative="1" as="geometry">
            <mxPoint x="20.5" y="48" as="sourcePoint" />
            <mxPoint x="19.5" y="24" as="targetPoint" />
          </mxGeometry>
        </mxCell>
        <mxCell id="bguLub1_RLqBDySIkXRc-210" value="" style="group" parent="1" vertex="1" connectable="0">
          <mxGeometry x="480" y="160" width="50" height="30" as="geometry" />
        </mxCell>
        <mxCell id="bguLub1_RLqBDySIkXRc-207" value="" style="ellipse;whiteSpace=wrap;html=1;pointerEvents=0;align=center;verticalAlign=top;fontFamily=Helvetica;fontSize=12;fontColor=default;fillColor=none;gradientColor=none;" parent="bguLub1_RLqBDySIkXRc-210" vertex="1">
          <mxGeometry x="5" y="2" width="40" height="23" as="geometry" />
        </mxCell>
        <mxCell id="bguLub1_RLqBDySIkXRc-209" value="&lt;u&gt;IdI&lt;/u&gt;" style="text;html=1;align=center;verticalAlign=middle;resizable=0;points=[];autosize=1;strokeColor=none;fillColor=none;fontFamily=Helvetica;fontSize=12;fontColor=default;" parent="bguLub1_RLqBDySIkXRc-210" vertex="1">
          <mxGeometry x="5" width="40" height="30" as="geometry" />
        </mxCell>
        <mxCell id="bguLub1_RLqBDySIkXRc-220" value="" style="group" parent="1" vertex="1" connectable="0">
          <mxGeometry x="480" y="250" width="50" height="30" as="geometry" />
        </mxCell>
        <mxCell id="bguLub1_RLqBDySIkXRc-221" value="" style="ellipse;whiteSpace=wrap;html=1;pointerEvents=0;align=center;verticalAlign=top;fontFamily=Helvetica;fontSize=12;fontColor=default;fillColor=none;gradientColor=none;" parent="bguLub1_RLqBDySIkXRc-220" vertex="1">
          <mxGeometry x="5" y="2" width="40" height="23" as="geometry" />
        </mxCell>
        <mxCell id="bguLub1_RLqBDySIkXRc-222" value="Tez" style="text;html=1;align=center;verticalAlign=middle;resizable=0;points=[];autosize=1;strokeColor=none;fillColor=none;fontFamily=Helvetica;fontSize=12;fontColor=default;" parent="bguLub1_RLqBDySIkXRc-220" vertex="1">
          <mxGeometry x="5" width="40" height="30" as="geometry" />
        </mxCell>
        <mxCell id="bguLub1_RLqBDySIkXRc-237" value="" style="endArrow=none;html=1;rounded=0;fontFamily=Helvetica;fontSize=12;fontColor=default;entryX=0.024;entryY=0.361;entryDx=0;entryDy=0;entryPerimeter=0;" parent="bguLub1_RLqBDySIkXRc-220" edge="1">
          <mxGeometry width="50" height="50" relative="1" as="geometry">
            <mxPoint x="-10" y="13" as="sourcePoint" />
            <mxPoint x="5" y="14" as="targetPoint" />
          </mxGeometry>
        </mxCell>
        <mxCell id="bguLub1_RLqBDySIkXRc-223" value="" style="group" parent="1" vertex="1" connectable="0">
          <mxGeometry x="481.5" y="220" width="50" height="30" as="geometry" />
        </mxCell>
        <mxCell id="bguLub1_RLqBDySIkXRc-224" value="" style="ellipse;whiteSpace=wrap;html=1;pointerEvents=0;align=center;verticalAlign=top;fontFamily=Helvetica;fontSize=12;fontColor=default;fillColor=none;gradientColor=none;" parent="bguLub1_RLqBDySIkXRc-223" vertex="1">
          <mxGeometry x="5" y="2" width="40" height="23" as="geometry" />
        </mxCell>
        <mxCell id="bguLub1_RLqBDySIkXRc-225" value="Vis" style="text;html=1;align=center;verticalAlign=middle;resizable=0;points=[];autosize=1;strokeColor=none;fillColor=none;fontFamily=Helvetica;fontSize=12;fontColor=default;" parent="bguLub1_RLqBDySIkXRc-223" vertex="1">
          <mxGeometry x="5" width="40" height="30" as="geometry" />
        </mxCell>
        <mxCell id="bguLub1_RLqBDySIkXRc-226" value="" style="group" parent="1" vertex="1" connectable="0">
          <mxGeometry x="470" y="280" width="55" height="30" as="geometry" />
        </mxCell>
        <mxCell id="bguLub1_RLqBDySIkXRc-227" value="" style="ellipse;whiteSpace=wrap;html=1;pointerEvents=0;align=center;verticalAlign=top;fontFamily=Helvetica;fontSize=12;fontColor=default;fillColor=none;gradientColor=none;" parent="bguLub1_RLqBDySIkXRc-226" vertex="1">
          <mxGeometry x="15" y="2" width="40" height="23" as="geometry" />
        </mxCell>
        <mxCell id="bguLub1_RLqBDySIkXRc-228" value="Kap" style="text;html=1;align=center;verticalAlign=middle;resizable=0;points=[];autosize=1;strokeColor=none;fillColor=none;fontFamily=Helvetica;fontSize=12;fontColor=default;" parent="bguLub1_RLqBDySIkXRc-226" vertex="1">
          <mxGeometry x="15" width="40" height="30" as="geometry" />
        </mxCell>
        <mxCell id="bguLub1_RLqBDySIkXRc-238" value="" style="endArrow=none;html=1;rounded=0;fontFamily=Helvetica;fontSize=12;fontColor=default;entryX=0.017;entryY=0.36;entryDx=0;entryDy=0;entryPerimeter=0;" parent="bguLub1_RLqBDySIkXRc-226" target="bguLub1_RLqBDySIkXRc-228" edge="1">
          <mxGeometry width="50" height="50" relative="1" as="geometry">
            <mxPoint y="10" as="sourcePoint" />
            <mxPoint x="17" y="11" as="targetPoint" />
          </mxGeometry>
        </mxCell>
        <mxCell id="bguLub1_RLqBDySIkXRc-229" value="" style="group" parent="1" vertex="1" connectable="0">
          <mxGeometry x="480" y="190" width="50" height="30" as="geometry" />
        </mxCell>
        <mxCell id="bguLub1_RLqBDySIkXRc-230" value="" style="ellipse;whiteSpace=wrap;html=1;pointerEvents=0;align=center;verticalAlign=top;fontFamily=Helvetica;fontSize=12;fontColor=default;fillColor=none;gradientColor=none;" parent="bguLub1_RLqBDySIkXRc-229" vertex="1">
          <mxGeometry x="5" y="2" width="40" height="23" as="geometry" />
        </mxCell>
        <mxCell id="bguLub1_RLqBDySIkXRc-231" value="Poz" style="text;html=1;align=center;verticalAlign=middle;resizable=0;points=[];autosize=1;strokeColor=none;fillColor=none;fontFamily=Helvetica;fontSize=12;fontColor=default;" parent="bguLub1_RLqBDySIkXRc-229" vertex="1">
          <mxGeometry x="5" width="40" height="30" as="geometry" />
        </mxCell>
        <mxCell id="bguLub1_RLqBDySIkXRc-236" value="" style="endArrow=none;html=1;rounded=0;fontFamily=Helvetica;fontSize=12;fontColor=default;entryX=0.024;entryY=0.361;entryDx=0;entryDy=0;entryPerimeter=0;" parent="bguLub1_RLqBDySIkXRc-229" edge="1">
          <mxGeometry width="50" height="50" relative="1" as="geometry">
            <mxPoint x="-10" y="13" as="sourcePoint" />
            <mxPoint x="5" y="14" as="targetPoint" />
          </mxGeometry>
        </mxCell>
        <mxCell id="bguLub1_RLqBDySIkXRc-232" value="" style="endArrow=none;html=1;rounded=0;fontFamily=Helvetica;fontSize=12;fontColor=default;" parent="1" edge="1">
          <mxGeometry width="50" height="50" relative="1" as="geometry">
            <mxPoint x="470" y="321" as="sourcePoint" />
            <mxPoint x="470" y="174" as="targetPoint" />
          </mxGeometry>
        </mxCell>
        <mxCell id="bguLub1_RLqBDySIkXRc-234" value="" style="endArrow=none;html=1;rounded=0;fontFamily=Helvetica;fontSize=12;fontColor=default;entryX=0.024;entryY=0.361;entryDx=0;entryDy=0;entryPerimeter=0;" parent="1" target="bguLub1_RLqBDySIkXRc-225" edge="1">
          <mxGeometry width="50" height="50" relative="1" as="geometry">
            <mxPoint x="470" y="230" as="sourcePoint" />
            <mxPoint x="520" y="180" as="targetPoint" />
          </mxGeometry>
        </mxCell>
        <mxCell id="bguLub1_RLqBDySIkXRc-235" value="" style="endArrow=none;html=1;rounded=0;fontFamily=Helvetica;fontSize=12;fontColor=default;entryX=0.003;entryY=0.497;entryDx=0;entryDy=0;entryPerimeter=0;" parent="1" target="bguLub1_RLqBDySIkXRc-209" edge="1">
          <mxGeometry width="50" height="50" relative="1" as="geometry">
            <mxPoint x="470" y="174.5" as="sourcePoint" />
            <mxPoint x="487" y="175.5" as="targetPoint" />
          </mxGeometry>
        </mxCell>
        <mxCell id="bguLub1_RLqBDySIkXRc-239" value="" style="group" parent="1" vertex="1" connectable="0">
          <mxGeometry x="860" y="650" width="50" height="30" as="geometry" />
        </mxCell>
        <mxCell id="bguLub1_RLqBDySIkXRc-240" value="" style="ellipse;whiteSpace=wrap;html=1;pointerEvents=0;align=center;verticalAlign=top;fontFamily=Helvetica;fontSize=12;fontColor=default;fillColor=none;gradientColor=none;" parent="bguLub1_RLqBDySIkXRc-239" vertex="1">
          <mxGeometry x="5" y="2" width="40" height="23" as="geometry" />
        </mxCell>
        <mxCell id="bguLub1_RLqBDySIkXRc-241" value="&lt;u&gt;IdTM&lt;/u&gt;" style="text;html=1;align=center;verticalAlign=middle;resizable=0;points=[];autosize=1;strokeColor=none;fillColor=none;fontFamily=Helvetica;fontSize=12;fontColor=default;" parent="bguLub1_RLqBDySIkXRc-239" vertex="1">
          <mxGeometry width="50" height="30" as="geometry" />
        </mxCell>
        <mxCell id="bguLub1_RLqBDySIkXRc-253" value="" style="group" parent="1" vertex="1" connectable="0">
          <mxGeometry x="940" y="670" width="80" height="38" as="geometry" />
        </mxCell>
        <mxCell id="bguLub1_RLqBDySIkXRc-254" value="" style="ellipse;whiteSpace=wrap;html=1;pointerEvents=0;align=center;verticalAlign=top;fontFamily=Helvetica;fontSize=12;fontColor=default;fillColor=none;gradientColor=none;" parent="bguLub1_RLqBDySIkXRc-253" vertex="1">
          <mxGeometry x="4" y="2" width="32" height="23" as="geometry" />
        </mxCell>
        <mxCell id="bguLub1_RLqBDySIkXRc-255" value="LokT" style="text;html=1;align=center;verticalAlign=middle;resizable=0;points=[];autosize=1;strokeColor=none;fillColor=none;fontFamily=Helvetica;fontSize=12;fontColor=default;" parent="bguLub1_RLqBDySIkXRc-253" vertex="1">
          <mxGeometry x="-5" y="-1.5" width="50" height="30" as="geometry" />
        </mxCell>
        <mxCell id="bguLub1_RLqBDySIkXRc-268" value="Budz" style="text;html=1;align=center;verticalAlign=middle;resizable=0;points=[];autosize=1;strokeColor=none;fillColor=none;fontFamily=Helvetica;fontSize=12;fontColor=default;" parent="bguLub1_RLqBDySIkXRc-253" vertex="1">
          <mxGeometry x="30" y="5" width="50" height="30" as="geometry" />
        </mxCell>
        <mxCell id="bguLub1_RLqBDySIkXRc-256" value="" style="endArrow=none;html=1;rounded=0;fontFamily=Helvetica;fontSize=12;fontColor=default;entryX=0.281;entryY=1.02;entryDx=0;entryDy=0;entryPerimeter=0;exitX=0.5;exitY=0.167;exitDx=0;exitDy=0;exitPerimeter=0;" parent="1" source="bguLub1_RLqBDySIkXRc-251" edge="1">
          <mxGeometry width="50" height="50" relative="1" as="geometry">
            <mxPoint x="919.24" y="661.5" as="sourcePoint" />
            <mxPoint x="920.77" y="650.3000000000002" as="targetPoint" />
          </mxGeometry>
        </mxCell>
        <mxCell id="bguLub1_RLqBDySIkXRc-258" value="" style="endArrow=none;html=1;rounded=0;fontFamily=Helvetica;fontSize=12;fontColor=default;entryX=0.038;entryY=1.004;entryDx=0;entryDy=0;entryPerimeter=0;" parent="1" target="bguLub1_RLqBDySIkXRc-77" edge="1">
          <mxGeometry width="50" height="50" relative="1" as="geometry">
            <mxPoint x="904.8800000000001" y="659.59" as="sourcePoint" />
            <mxPoint x="920" y="660.0000000000001" as="targetPoint" />
          </mxGeometry>
        </mxCell>
        <mxCell id="bguLub1_RLqBDySIkXRc-250" value="" style="ellipse;whiteSpace=wrap;html=1;pointerEvents=0;align=center;verticalAlign=top;fontFamily=Helvetica;fontSize=12;fontColor=default;fillColor=none;gradientColor=none;" parent="1" vertex="1">
          <mxGeometry x="900" y="668.5" width="40" height="23" as="geometry" />
        </mxCell>
        <mxCell id="bguLub1_RLqBDySIkXRc-251" value="ImeT" style="text;html=1;align=center;verticalAlign=middle;resizable=0;points=[];autosize=1;strokeColor=none;fillColor=none;fontFamily=Helvetica;fontSize=12;fontColor=default;" parent="1" vertex="1">
          <mxGeometry x="895" y="665" width="50" height="30" as="geometry" />
        </mxCell>
        <mxCell id="bguLub1_RLqBDySIkXRc-257" value="" style="endArrow=none;html=1;rounded=0;fontFamily=Helvetica;fontSize=12;fontColor=default;entryX=0.608;entryY=1.02;entryDx=0;entryDy=0;entryPerimeter=0;exitX=0.314;exitY=0.077;exitDx=0;exitDy=0;exitPerimeter=0;" parent="1" source="bguLub1_RLqBDySIkXRc-255" edge="1">
          <mxGeometry width="50" height="50" relative="1" as="geometry">
            <mxPoint x="930" y="661.5" as="sourcePoint" />
            <mxPoint x="951.5" y="649.6300000000002" as="targetPoint" />
          </mxGeometry>
        </mxCell>
        <mxCell id="bguLub1_RLqBDySIkXRc-260" value="" style="ellipse;whiteSpace=wrap;html=1;pointerEvents=0;align=center;verticalAlign=top;fontFamily=Helvetica;fontSize=12;fontColor=default;fillColor=none;gradientColor=none;" parent="1" vertex="1">
          <mxGeometry x="1012.5" y="680" width="30" height="20" as="geometry" />
        </mxCell>
        <mxCell id="bguLub1_RLqBDySIkXRc-262" value="" style="endArrow=none;html=1;rounded=0;fontFamily=Helvetica;fontSize=12;fontColor=default;entryX=0.75;entryY=1;entryDx=0;entryDy=0;exitX=0;exitY=0;exitDx=0;exitDy=0;" parent="1" source="bguLub1_RLqBDySIkXRc-260" target="bguLub1_RLqBDySIkXRc-77" edge="1">
          <mxGeometry width="50" height="50" relative="1" as="geometry">
            <mxPoint x="990" y="669.99" as="sourcePoint" />
            <mxPoint x="990" y="650.0000000000002" as="targetPoint" />
          </mxGeometry>
        </mxCell>
        <mxCell id="bguLub1_RLqBDySIkXRc-265" value="" style="ellipse;whiteSpace=wrap;html=1;pointerEvents=0;align=center;verticalAlign=top;fontFamily=Helvetica;fontSize=12;fontColor=default;fillColor=none;gradientColor=none;" parent="1" vertex="1">
          <mxGeometry x="980" y="680" width="30" height="20" as="geometry" />
        </mxCell>
        <mxCell id="bguLub1_RLqBDySIkXRc-266" value="" style="endArrow=none;html=1;rounded=0;fontFamily=Helvetica;fontSize=12;fontColor=default;entryX=0.75;entryY=1;entryDx=0;entryDy=0;exitX=0.5;exitY=0;exitDx=0;exitDy=0;" parent="1" source="bguLub1_RLqBDySIkXRc-265" edge="1">
          <mxGeometry width="50" height="50" relative="1" as="geometry">
            <mxPoint x="999" y="683" as="sourcePoint" />
            <mxPoint x="990" y="650" as="targetPoint" />
          </mxGeometry>
        </mxCell>
        <mxCell id="bguLub1_RLqBDySIkXRc-269" value="Bot" style="text;html=1;align=center;verticalAlign=middle;resizable=0;points=[];autosize=1;strokeColor=none;fillColor=none;fontFamily=Helvetica;fontSize=12;fontColor=default;" parent="1" vertex="1">
          <mxGeometry x="1007" y="674" width="40" height="30" as="geometry" />
        </mxCell>
        <mxCell id="bguLub1_RLqBDySIkXRc-270" value="" style="group" parent="1" vertex="1" connectable="0">
          <mxGeometry x="701" y="852" width="50" height="30" as="geometry" />
        </mxCell>
        <mxCell id="bguLub1_RLqBDySIkXRc-271" value="" style="ellipse;whiteSpace=wrap;html=1;pointerEvents=0;align=center;verticalAlign=top;fontFamily=Helvetica;fontSize=12;fontColor=default;fillColor=none;gradientColor=none;" parent="bguLub1_RLqBDySIkXRc-270" vertex="1">
          <mxGeometry x="5" y="2" width="40" height="23" as="geometry" />
        </mxCell>
        <mxCell id="bguLub1_RLqBDySIkXRc-272" value="&lt;u&gt;IdA&lt;/u&gt;" style="text;html=1;align=center;verticalAlign=middle;resizable=0;points=[];autosize=1;strokeColor=none;fillColor=none;fontFamily=Helvetica;fontSize=12;fontColor=default;" parent="bguLub1_RLqBDySIkXRc-270" vertex="1">
          <mxGeometry x="5" width="40" height="30" as="geometry" />
        </mxCell>
        <mxCell id="bguLub1_RLqBDySIkXRc-273" value="" style="group" parent="1" vertex="1" connectable="0">
          <mxGeometry x="790" y="850" width="50" height="30" as="geometry" />
        </mxCell>
        <mxCell id="bguLub1_RLqBDySIkXRc-274" value="" style="ellipse;whiteSpace=wrap;html=1;pointerEvents=0;align=center;verticalAlign=top;fontFamily=Helvetica;fontSize=12;fontColor=default;fillColor=none;gradientColor=none;" parent="bguLub1_RLqBDySIkXRc-273" vertex="1">
          <mxGeometry x="5" y="2" width="40" height="23" as="geometry" />
        </mxCell>
        <mxCell id="bguLub1_RLqBDySIkXRc-275" value="Kap" style="text;html=1;align=center;verticalAlign=middle;resizable=0;points=[];autosize=1;strokeColor=none;fillColor=none;fontFamily=Helvetica;fontSize=12;fontColor=default;" parent="bguLub1_RLqBDySIkXRc-273" vertex="1">
          <mxGeometry x="5" width="40" height="30" as="geometry" />
        </mxCell>
        <mxCell id="bguLub1_RLqBDySIkXRc-276" value="" style="group" parent="1" vertex="1" connectable="0">
          <mxGeometry x="750" y="850" width="50" height="30" as="geometry" />
        </mxCell>
        <mxCell id="bguLub1_RLqBDySIkXRc-277" value="" style="ellipse;whiteSpace=wrap;html=1;pointerEvents=0;align=center;verticalAlign=top;fontFamily=Helvetica;fontSize=12;fontColor=default;fillColor=none;gradientColor=none;" parent="bguLub1_RLqBDySIkXRc-276" vertex="1">
          <mxGeometry x="5" y="2" width="40" height="23" as="geometry" />
        </mxCell>
        <mxCell id="bguLub1_RLqBDySIkXRc-278" value="LokA" style="text;html=1;align=center;verticalAlign=middle;resizable=0;points=[];autosize=1;strokeColor=none;fillColor=none;fontFamily=Helvetica;fontSize=12;fontColor=default;" parent="bguLub1_RLqBDySIkXRc-276" vertex="1">
          <mxGeometry width="50" height="30" as="geometry" />
        </mxCell>
        <mxCell id="bguLub1_RLqBDySIkXRc-279" value="" style="group" parent="1" vertex="1" connectable="0">
          <mxGeometry x="265" y="851" width="50" height="30" as="geometry" />
        </mxCell>
        <mxCell id="bguLub1_RLqBDySIkXRc-280" value="" style="ellipse;whiteSpace=wrap;html=1;pointerEvents=0;align=center;verticalAlign=top;fontFamily=Helvetica;fontSize=12;fontColor=default;fillColor=none;gradientColor=none;" parent="bguLub1_RLqBDySIkXRc-279" vertex="1">
          <mxGeometry x="5" y="2" width="40" height="23" as="geometry" />
        </mxCell>
        <mxCell id="bguLub1_RLqBDySIkXRc-281" value="&lt;u&gt;IdSz&lt;/u&gt;" style="text;html=1;align=center;verticalAlign=middle;resizable=0;points=[];autosize=1;strokeColor=none;fillColor=none;fontFamily=Helvetica;fontSize=12;fontColor=default;" parent="bguLub1_RLqBDySIkXRc-279" vertex="1">
          <mxGeometry width="50" height="30" as="geometry" />
        </mxCell>
        <mxCell id="bguLub1_RLqBDySIkXRc-282" value="" style="group" parent="1" vertex="1" connectable="0">
          <mxGeometry x="364" y="851" width="50" height="30" as="geometry" />
        </mxCell>
        <mxCell id="bguLub1_RLqBDySIkXRc-283" value="" style="ellipse;whiteSpace=wrap;html=1;pointerEvents=0;align=center;verticalAlign=top;fontFamily=Helvetica;fontSize=12;fontColor=default;fillColor=none;gradientColor=none;" parent="bguLub1_RLqBDySIkXRc-282" vertex="1">
          <mxGeometry x="5" y="2" width="40" height="23" as="geometry" />
        </mxCell>
        <mxCell id="bguLub1_RLqBDySIkXRc-284" value="BrT" style="text;html=1;align=center;verticalAlign=middle;resizable=0;points=[];autosize=1;strokeColor=none;fillColor=none;fontFamily=Helvetica;fontSize=12;fontColor=default;" parent="bguLub1_RLqBDySIkXRc-282" vertex="1">
          <mxGeometry x="5" width="40" height="30" as="geometry" />
        </mxCell>
        <mxCell id="bguLub1_RLqBDySIkXRc-285" value="" style="group" parent="1" vertex="1" connectable="0">
          <mxGeometry x="314" y="849" width="50" height="30" as="geometry" />
        </mxCell>
        <mxCell id="bguLub1_RLqBDySIkXRc-286" value="" style="ellipse;whiteSpace=wrap;html=1;pointerEvents=0;align=center;verticalAlign=top;fontFamily=Helvetica;fontSize=12;fontColor=default;fillColor=none;gradientColor=none;" parent="bguLub1_RLqBDySIkXRc-285" vertex="1">
          <mxGeometry x="5" y="2" width="40" height="23" as="geometry" />
        </mxCell>
        <mxCell id="bguLub1_RLqBDySIkXRc-287" value="NazS" style="text;html=1;align=center;verticalAlign=middle;resizable=0;points=[];autosize=1;strokeColor=none;fillColor=none;fontFamily=Helvetica;fontSize=12;fontColor=default;" parent="bguLub1_RLqBDySIkXRc-285" vertex="1">
          <mxGeometry width="50" height="30" as="geometry" />
        </mxCell>
        <mxCell id="bguLub1_RLqBDySIkXRc-288" value="" style="endArrow=none;html=1;rounded=0;fontFamily=Helvetica;fontSize=12;fontColor=default;exitX=0.499;exitY=0.062;exitDx=0;exitDy=0;exitPerimeter=0;" parent="1" source="bguLub1_RLqBDySIkXRc-281" edge="1">
          <mxGeometry width="50" height="50" relative="1" as="geometry">
            <mxPoint x="250" y="890" as="sourcePoint" />
            <mxPoint x="300" y="840" as="targetPoint" />
          </mxGeometry>
        </mxCell>
        <mxCell id="bguLub1_RLqBDySIkXRc-289" value="" style="endArrow=none;html=1;rounded=0;fontFamily=Helvetica;fontSize=12;fontColor=default;exitX=0.499;exitY=0.062;exitDx=0;exitDy=0;exitPerimeter=0;" parent="1" edge="1">
          <mxGeometry width="50" height="50" relative="1" as="geometry">
            <mxPoint x="334" y="854" as="sourcePoint" />
            <mxPoint x="344" y="840" as="targetPoint" />
          </mxGeometry>
        </mxCell>
        <mxCell id="bguLub1_RLqBDySIkXRc-290" value="" style="endArrow=none;html=1;rounded=0;fontFamily=Helvetica;fontSize=12;fontColor=default;exitX=0.499;exitY=0.062;exitDx=0;exitDy=0;exitPerimeter=0;" parent="1" edge="1">
          <mxGeometry width="50" height="50" relative="1" as="geometry">
            <mxPoint x="384" y="854" as="sourcePoint" />
            <mxPoint x="394" y="840" as="targetPoint" />
          </mxGeometry>
        </mxCell>
        <mxCell id="bguLub1_RLqBDySIkXRc-291" value="" style="endArrow=none;html=1;rounded=0;fontFamily=Helvetica;fontSize=12;fontColor=default;exitX=0.499;exitY=0.062;exitDx=0;exitDy=0;exitPerimeter=0;" parent="1" edge="1">
          <mxGeometry width="50" height="50" relative="1" as="geometry">
            <mxPoint x="725" y="854" as="sourcePoint" />
            <mxPoint x="735" y="840" as="targetPoint" />
          </mxGeometry>
        </mxCell>
        <mxCell id="bguLub1_RLqBDySIkXRc-292" value="" style="endArrow=none;html=1;rounded=0;fontFamily=Helvetica;fontSize=12;fontColor=default;exitX=0.499;exitY=0.062;exitDx=0;exitDy=0;exitPerimeter=0;" parent="1" edge="1">
          <mxGeometry width="50" height="50" relative="1" as="geometry">
            <mxPoint x="770" y="852" as="sourcePoint" />
            <mxPoint x="780" y="840" as="targetPoint" />
          </mxGeometry>
        </mxCell>
        <mxCell id="bguLub1_RLqBDySIkXRc-293" value="" style="endArrow=none;html=1;rounded=0;fontFamily=Helvetica;fontSize=12;fontColor=default;exitX=0.499;exitY=0.062;exitDx=0;exitDy=0;exitPerimeter=0;" parent="1" edge="1">
          <mxGeometry width="50" height="50" relative="1" as="geometry">
            <mxPoint x="820" y="854" as="sourcePoint" />
            <mxPoint x="830" y="840" as="targetPoint" />
          </mxGeometry>
        </mxCell>
        <mxCell id="bguLub1_RLqBDySIkXRc-294" value="" style="group" parent="1" vertex="1" connectable="0">
          <mxGeometry x="150" y="532" width="50" height="30" as="geometry" />
        </mxCell>
        <mxCell id="bguLub1_RLqBDySIkXRc-295" value="" style="ellipse;whiteSpace=wrap;html=1;pointerEvents=0;align=center;verticalAlign=top;fontFamily=Helvetica;fontSize=12;fontColor=default;fillColor=none;gradientColor=none;" parent="bguLub1_RLqBDySIkXRc-294" vertex="1">
          <mxGeometry x="5" y="2" width="40" height="23" as="geometry" />
        </mxCell>
        <mxCell id="bguLub1_RLqBDySIkXRc-296" value="&lt;u&gt;IdP&lt;/u&gt;" style="text;html=1;align=center;verticalAlign=middle;resizable=0;points=[];autosize=1;strokeColor=none;fillColor=none;fontFamily=Helvetica;fontSize=12;fontColor=default;" parent="bguLub1_RLqBDySIkXRc-294" vertex="1">
          <mxGeometry x="5" width="40" height="30" as="geometry" />
        </mxCell>
        <mxCell id="bguLub1_RLqBDySIkXRc-297" value="" style="group" parent="1" vertex="1" connectable="0">
          <mxGeometry x="279" y="542" width="50" height="30" as="geometry" />
        </mxCell>
        <mxCell id="bguLub1_RLqBDySIkXRc-298" value="" style="ellipse;whiteSpace=wrap;html=1;pointerEvents=0;align=center;verticalAlign=top;fontFamily=Helvetica;fontSize=12;fontColor=default;fillColor=none;gradientColor=none;" parent="bguLub1_RLqBDySIkXRc-297" vertex="1">
          <mxGeometry x="-25" y="-8" width="40" height="23" as="geometry" />
        </mxCell>
        <mxCell id="bguLub1_RLqBDySIkXRc-299" value="TrajO" style="text;html=1;align=center;verticalAlign=middle;resizable=0;points=[];autosize=1;strokeColor=none;fillColor=none;fontFamily=Helvetica;fontSize=12;fontColor=default;" parent="bguLub1_RLqBDySIkXRc-297" vertex="1">
          <mxGeometry x="-30" y="-10" width="50" height="30" as="geometry" />
        </mxCell>
        <mxCell id="bguLub1_RLqBDySIkXRc-300" value="" style="group" parent="1" vertex="1" connectable="0">
          <mxGeometry x="199" y="530" width="50" height="30" as="geometry" />
        </mxCell>
        <mxCell id="bguLub1_RLqBDySIkXRc-301" value="" style="ellipse;whiteSpace=wrap;html=1;pointerEvents=0;align=center;verticalAlign=top;fontFamily=Helvetica;fontSize=12;fontColor=default;fillColor=none;gradientColor=none;" parent="bguLub1_RLqBDySIkXRc-300" vertex="1">
          <mxGeometry x="5" y="2" width="40" height="23" as="geometry" />
        </mxCell>
        <mxCell id="bguLub1_RLqBDySIkXRc-302" value="NazP" style="text;html=1;align=center;verticalAlign=middle;resizable=0;points=[];autosize=1;strokeColor=none;fillColor=none;fontFamily=Helvetica;fontSize=12;fontColor=default;" parent="bguLub1_RLqBDySIkXRc-300" vertex="1">
          <mxGeometry width="50" height="30" as="geometry" />
        </mxCell>
        <mxCell id="bguLub1_RLqBDySIkXRc-306" value="" style="endArrow=none;html=1;rounded=0;fontFamily=Helvetica;fontSize=12;fontColor=default;exitX=0.542;exitY=0.059;exitDx=0;exitDy=0;exitPerimeter=0;" parent="1" source="bguLub1_RLqBDySIkXRc-296" edge="1">
          <mxGeometry width="50" height="50" relative="1" as="geometry">
            <mxPoint x="130" y="570" as="sourcePoint" />
            <mxPoint x="180" y="520" as="targetPoint" />
          </mxGeometry>
        </mxCell>
        <mxCell id="bguLub1_RLqBDySIkXRc-307" value="" style="endArrow=none;html=1;rounded=0;fontFamily=Helvetica;fontSize=12;fontColor=default;exitX=0.542;exitY=0.059;exitDx=0;exitDy=0;exitPerimeter=0;" parent="1" edge="1">
          <mxGeometry width="50" height="50" relative="1" as="geometry">
            <mxPoint x="210" y="535" as="sourcePoint" />
            <mxPoint x="213" y="521" as="targetPoint" />
          </mxGeometry>
        </mxCell>
        <mxCell id="bguLub1_RLqBDySIkXRc-308" value="" style="endArrow=none;html=1;rounded=0;fontFamily=Helvetica;fontSize=12;fontColor=default;exitX=0.542;exitY=0.059;exitDx=0;exitDy=0;exitPerimeter=0;" parent="1" edge="1">
          <mxGeometry width="50" height="50" relative="1" as="geometry">
            <mxPoint x="262" y="536.5" as="sourcePoint" />
            <mxPoint x="265" y="522.5" as="targetPoint" />
          </mxGeometry>
        </mxCell>
        <mxCell id="bguLub1_RLqBDySIkXRc-311" value="" style="group" parent="1" vertex="1" connectable="0">
          <mxGeometry x="1130" y="81" width="50" height="30" as="geometry" />
        </mxCell>
        <mxCell id="bguLub1_RLqBDySIkXRc-312" value="" style="ellipse;whiteSpace=wrap;html=1;pointerEvents=0;align=center;verticalAlign=top;fontFamily=Helvetica;fontSize=12;fontColor=default;fillColor=none;gradientColor=none;" parent="bguLub1_RLqBDySIkXRc-311" vertex="1">
          <mxGeometry x="5" y="2" width="40" height="23" as="geometry" />
        </mxCell>
        <mxCell id="bguLub1_RLqBDySIkXRc-313" value="&lt;u&gt;IdTF&lt;/u&gt;" style="text;html=1;align=center;verticalAlign=middle;resizable=0;points=[];autosize=1;strokeColor=none;fillColor=none;fontFamily=Helvetica;fontSize=12;fontColor=default;" parent="bguLub1_RLqBDySIkXRc-311" vertex="1">
          <mxGeometry width="50" height="30" as="geometry" />
        </mxCell>
        <mxCell id="bguLub1_RLqBDySIkXRc-332" value="" style="endArrow=none;html=1;rounded=0;fontFamily=Helvetica;fontSize=12;fontColor=default;exitX=0.04;exitY=-0.003;exitDx=0;exitDy=0;exitPerimeter=0;" parent="bguLub1_RLqBDySIkXRc-311" source="bguLub1_RLqBDySIkXRc-85" edge="1">
          <mxGeometry width="50" height="50" relative="1" as="geometry">
            <mxPoint x="35" y="30" as="sourcePoint" />
            <mxPoint x="45" y="16" as="targetPoint" />
          </mxGeometry>
        </mxCell>
        <mxCell id="bguLub1_RLqBDySIkXRc-314" value="" style="group" parent="1" vertex="1" connectable="0">
          <mxGeometry x="1229" y="81" width="55" height="30" as="geometry" />
        </mxCell>
        <mxCell id="bguLub1_RLqBDySIkXRc-315" value="" style="ellipse;whiteSpace=wrap;html=1;pointerEvents=0;align=center;verticalAlign=top;fontFamily=Helvetica;fontSize=12;fontColor=default;fillColor=none;gradientColor=none;" parent="bguLub1_RLqBDySIkXRc-314" vertex="1">
          <mxGeometry x="5" y="2" width="40" height="23" as="geometry" />
        </mxCell>
        <mxCell id="bguLub1_RLqBDySIkXRc-316" value="CenaT" style="text;html=1;align=center;verticalAlign=middle;resizable=0;points=[];autosize=1;strokeColor=none;fillColor=none;fontFamily=Helvetica;fontSize=12;fontColor=default;" parent="bguLub1_RLqBDySIkXRc-314" vertex="1">
          <mxGeometry x="-5" width="60" height="30" as="geometry" />
        </mxCell>
        <mxCell id="bguLub1_RLqBDySIkXRc-328" value="" style="endArrow=none;html=1;rounded=0;fontFamily=Helvetica;fontSize=12;fontColor=default;exitX=0.499;exitY=0.062;exitDx=0;exitDy=0;exitPerimeter=0;" parent="bguLub1_RLqBDySIkXRc-314" edge="1">
          <mxGeometry width="50" height="50" relative="1" as="geometry">
            <mxPoint x="7" y="39" as="sourcePoint" />
            <mxPoint x="17" y="25" as="targetPoint" />
          </mxGeometry>
        </mxCell>
        <mxCell id="bguLub1_RLqBDySIkXRc-317" value="" style="group" parent="1" vertex="1" connectable="0">
          <mxGeometry x="1179" y="79" width="50" height="30" as="geometry" />
        </mxCell>
        <mxCell id="bguLub1_RLqBDySIkXRc-318" value="" style="ellipse;whiteSpace=wrap;html=1;pointerEvents=0;align=center;verticalAlign=top;fontFamily=Helvetica;fontSize=12;fontColor=default;fillColor=none;gradientColor=none;" parent="bguLub1_RLqBDySIkXRc-317" vertex="1">
          <mxGeometry x="5" y="2" width="40" height="23" as="geometry" />
        </mxCell>
        <mxCell id="bguLub1_RLqBDySIkXRc-319" value="DatT" style="text;html=1;align=center;verticalAlign=middle;resizable=0;points=[];autosize=1;strokeColor=none;fillColor=none;fontFamily=Helvetica;fontSize=12;fontColor=default;" parent="bguLub1_RLqBDySIkXRc-317" vertex="1">
          <mxGeometry width="50" height="30" as="geometry" />
        </mxCell>
        <mxCell id="bguLub1_RLqBDySIkXRc-322" value="" style="endArrow=none;html=1;rounded=0;fontFamily=Helvetica;fontSize=12;fontColor=default;exitX=0.187;exitY=-0.013;exitDx=0;exitDy=0;exitPerimeter=0;" parent="bguLub1_RLqBDySIkXRc-317" source="bguLub1_RLqBDySIkXRc-85" edge="1">
          <mxGeometry width="50" height="50" relative="1" as="geometry">
            <mxPoint x="20" y="39" as="sourcePoint" />
            <mxPoint x="30" y="25" as="targetPoint" />
          </mxGeometry>
        </mxCell>
        <mxCell id="bguLub1_RLqBDySIkXRc-343" value="" style="group" parent="1" vertex="1" connectable="0">
          <mxGeometry x="670" y="450" width="100" height="70" as="geometry" />
        </mxCell>
        <mxCell id="XA_54IxqnKkXPmQBRb8S-11" style="edgeStyle=orthogonalEdgeStyle;rounded=0;orthogonalLoop=1;jettySize=auto;html=1;" parent="bguLub1_RLqBDySIkXRc-343" source="bguLub1_RLqBDySIkXRc-344" edge="1">
          <mxGeometry relative="1" as="geometry">
            <mxPoint x="-60" y="35" as="targetPoint" />
          </mxGeometry>
        </mxCell>
        <mxCell id="bguLub1_RLqBDySIkXRc-344" value="" style="rhombus;whiteSpace=wrap;html=1;" parent="bguLub1_RLqBDySIkXRc-343" vertex="1">
          <mxGeometry width="90" height="70" as="geometry" />
        </mxCell>
        <mxCell id="bguLub1_RLqBDySIkXRc-345" value="Poseduje" style="rhombus;whiteSpace=wrap;html=1;" parent="bguLub1_RLqBDySIkXRc-343" vertex="1">
          <mxGeometry x="11.25" y="8.75" width="67.5" height="52.5" as="geometry" />
        </mxCell>
        <mxCell id="bguLub1_RLqBDySIkXRc-346" value="" style="group" parent="1" vertex="1" connectable="0">
          <mxGeometry x="810" y="450" width="130" height="60" as="geometry" />
        </mxCell>
        <mxCell id="bguLub1_RLqBDySIkXRc-347" value="" style="rounded=0;whiteSpace=wrap;html=1;" parent="bguLub1_RLqBDySIkXRc-346" vertex="1">
          <mxGeometry width="130" height="60" as="geometry" />
        </mxCell>
        <mxCell id="bguLub1_RLqBDySIkXRc-348" value="Statistika igrača" style="rounded=0;whiteSpace=wrap;html=1;" parent="bguLub1_RLqBDySIkXRc-346" vertex="1">
          <mxGeometry x="10" y="10" width="110" height="40" as="geometry" />
        </mxCell>
        <mxCell id="bguLub1_RLqBDySIkXRc-357" value="" style="group" parent="1" vertex="1" connectable="0">
          <mxGeometry x="1091" y="-29" width="50" height="30" as="geometry" />
        </mxCell>
        <mxCell id="bguLub1_RLqBDySIkXRc-358" value="" style="ellipse;whiteSpace=wrap;html=1;pointerEvents=0;align=center;verticalAlign=top;fontFamily=Helvetica;fontSize=12;fontColor=default;fillColor=none;gradientColor=none;" parent="bguLub1_RLqBDySIkXRc-357" vertex="1">
          <mxGeometry x="5" y="2" width="40" height="23" as="geometry" />
        </mxCell>
        <mxCell id="bguLub1_RLqBDySIkXRc-359" value="&lt;u&gt;IdTR&lt;/u&gt;" style="text;html=1;align=center;verticalAlign=middle;resizable=0;points=[];autosize=1;strokeColor=none;fillColor=none;fontFamily=Helvetica;fontSize=12;fontColor=default;" parent="bguLub1_RLqBDySIkXRc-357" vertex="1">
          <mxGeometry width="50" height="30" as="geometry" />
        </mxCell>
        <mxCell id="bguLub1_RLqBDySIkXRc-360" value="" style="endArrow=none;html=1;rounded=0;fontFamily=Helvetica;fontSize=12;fontColor=default;exitX=0.678;exitY=-0.045;exitDx=0;exitDy=0;exitPerimeter=0;" parent="bguLub1_RLqBDySIkXRc-357" source="bguLub1_RLqBDySIkXRc-86" edge="1">
          <mxGeometry width="50" height="50" relative="1" as="geometry">
            <mxPoint x="35" y="30" as="sourcePoint" />
            <mxPoint x="45" y="16" as="targetPoint" />
          </mxGeometry>
        </mxCell>
        <mxCell id="bguLub1_RLqBDySIkXRc-361" value="" style="group" parent="1" vertex="1" connectable="0">
          <mxGeometry x="1139" y="-30" width="50" height="30" as="geometry" />
        </mxCell>
        <mxCell id="bguLub1_RLqBDySIkXRc-362" value="" style="ellipse;whiteSpace=wrap;html=1;pointerEvents=0;align=center;verticalAlign=top;fontFamily=Helvetica;fontSize=12;fontColor=default;fillColor=none;gradientColor=none;" parent="bguLub1_RLqBDySIkXRc-361" vertex="1">
          <mxGeometry x="5" y="2" width="40" height="23" as="geometry" />
        </mxCell>
        <mxCell id="bguLub1_RLqBDySIkXRc-363" value="VrsT" style="text;html=1;align=center;verticalAlign=middle;resizable=0;points=[];autosize=1;strokeColor=none;fillColor=none;fontFamily=Helvetica;fontSize=12;fontColor=default;" parent="bguLub1_RLqBDySIkXRc-361" vertex="1">
          <mxGeometry width="50" height="30" as="geometry" />
        </mxCell>
        <mxCell id="bguLub1_RLqBDySIkXRc-364" value="" style="endArrow=none;html=1;rounded=0;fontFamily=Helvetica;fontSize=12;fontColor=default;exitX=0.187;exitY=-0.013;exitDx=0;exitDy=0;exitPerimeter=0;" parent="bguLub1_RLqBDySIkXRc-361" edge="1">
          <mxGeometry width="50" height="50" relative="1" as="geometry">
            <mxPoint x="20" y="39" as="sourcePoint" />
            <mxPoint x="30" y="25" as="targetPoint" />
          </mxGeometry>
        </mxCell>
        <mxCell id="bguLub1_RLqBDySIkXRc-366" value="" style="group" parent="1" vertex="1" connectable="0">
          <mxGeometry x="800.5" y="525" width="50" height="30" as="geometry" />
        </mxCell>
        <mxCell id="bguLub1_RLqBDySIkXRc-367" value="" style="ellipse;whiteSpace=wrap;html=1;pointerEvents=0;align=center;verticalAlign=top;fontFamily=Helvetica;fontSize=12;fontColor=default;fillColor=none;gradientColor=none;" parent="bguLub1_RLqBDySIkXRc-366" vertex="1">
          <mxGeometry x="5" y="2" width="40" height="23" as="geometry" />
        </mxCell>
        <mxCell id="bguLub1_RLqBDySIkXRc-368" value="&lt;u&gt;IdSI&lt;/u&gt;" style="text;html=1;align=center;verticalAlign=middle;resizable=0;points=[];autosize=1;strokeColor=none;fillColor=none;fontFamily=Helvetica;fontSize=12;fontColor=default;" parent="bguLub1_RLqBDySIkXRc-366" vertex="1">
          <mxGeometry x="5" width="40" height="30" as="geometry" />
        </mxCell>
        <mxCell id="bguLub1_RLqBDySIkXRc-369" value="" style="group" parent="1" vertex="1" connectable="0">
          <mxGeometry x="899.5" y="525" width="50" height="30" as="geometry" />
        </mxCell>
        <mxCell id="bguLub1_RLqBDySIkXRc-370" value="" style="ellipse;whiteSpace=wrap;html=1;pointerEvents=0;align=center;verticalAlign=top;fontFamily=Helvetica;fontSize=12;fontColor=default;fillColor=none;gradientColor=none;" parent="bguLub1_RLqBDySIkXRc-369" vertex="1">
          <mxGeometry x="5" y="2" width="40" height="23" as="geometry" />
        </mxCell>
        <mxCell id="bguLub1_RLqBDySIkXRc-371" value="Skok" style="text;html=1;align=center;verticalAlign=middle;resizable=0;points=[];autosize=1;strokeColor=none;fillColor=none;fontFamily=Helvetica;fontSize=12;fontColor=default;" parent="bguLub1_RLqBDySIkXRc-369" vertex="1">
          <mxGeometry width="50" height="30" as="geometry" />
        </mxCell>
        <mxCell id="bguLub1_RLqBDySIkXRc-372" value="" style="group" parent="1" vertex="1" connectable="0">
          <mxGeometry x="849.5" y="523" width="55" height="30" as="geometry" />
        </mxCell>
        <mxCell id="bguLub1_RLqBDySIkXRc-373" value="" style="ellipse;whiteSpace=wrap;html=1;pointerEvents=0;align=center;verticalAlign=top;fontFamily=Helvetica;fontSize=12;fontColor=default;fillColor=none;gradientColor=none;" parent="bguLub1_RLqBDySIkXRc-372" vertex="1">
          <mxGeometry x="5" y="2" width="40" height="23" as="geometry" />
        </mxCell>
        <mxCell id="bguLub1_RLqBDySIkXRc-374" value="Poen" style="text;html=1;align=center;verticalAlign=middle;resizable=0;points=[];autosize=1;strokeColor=none;fillColor=none;fontFamily=Helvetica;fontSize=12;fontColor=default;" parent="bguLub1_RLqBDySIkXRc-372" vertex="1">
          <mxGeometry width="50" height="30" as="geometry" />
        </mxCell>
        <mxCell id="bguLub1_RLqBDySIkXRc-375" value="" style="endArrow=none;html=1;rounded=0;fontFamily=Helvetica;fontSize=12;fontColor=default;exitX=0.499;exitY=0.062;exitDx=0;exitDy=0;exitPerimeter=0;entryX=0.116;entryY=1.026;entryDx=0;entryDy=0;entryPerimeter=0;" parent="1" source="bguLub1_RLqBDySIkXRc-368" target="bguLub1_RLqBDySIkXRc-347" edge="1">
          <mxGeometry width="50" height="50" relative="1" as="geometry">
            <mxPoint x="725" y="564" as="sourcePoint" />
            <mxPoint x="775" y="514" as="targetPoint" />
          </mxGeometry>
        </mxCell>
        <mxCell id="bguLub1_RLqBDySIkXRc-376" value="" style="endArrow=none;html=1;rounded=0;fontFamily=Helvetica;fontSize=12;fontColor=default;exitX=0.493;exitY=0.061;exitDx=0;exitDy=0;exitPerimeter=0;entryX=0.458;entryY=1.007;entryDx=0;entryDy=0;entryPerimeter=0;" parent="1" source="bguLub1_RLqBDySIkXRc-374" target="bguLub1_RLqBDySIkXRc-347" edge="1">
          <mxGeometry width="50" height="50" relative="1" as="geometry">
            <mxPoint x="809" y="528" as="sourcePoint" />
            <mxPoint x="870" y="512" as="targetPoint" />
          </mxGeometry>
        </mxCell>
        <mxCell id="bguLub1_RLqBDySIkXRc-377" value="" style="endArrow=none;html=1;rounded=0;fontFamily=Helvetica;fontSize=12;fontColor=default;exitX=0.449;exitY=0.08;exitDx=0;exitDy=0;exitPerimeter=0;entryX=0.46;entryY=0.977;entryDx=0;entryDy=0;entryPerimeter=0;" parent="1" source="bguLub1_RLqBDySIkXRc-371" edge="1">
          <mxGeometry width="50" height="50" relative="1" as="geometry">
            <mxPoint x="909.2" y="529.3800000000001" as="sourcePoint" />
            <mxPoint x="920" y="509.99999999999994" as="targetPoint" />
          </mxGeometry>
        </mxCell>
        <mxCell id="bguLub1_RLqBDySIkXRc-378" value="" style="group" parent="1" vertex="1" connectable="0">
          <mxGeometry x="950" y="516.8" width="50" height="30" as="geometry" />
        </mxCell>
        <mxCell id="bguLub1_RLqBDySIkXRc-379" value="" style="ellipse;whiteSpace=wrap;html=1;pointerEvents=0;align=center;verticalAlign=top;fontFamily=Helvetica;fontSize=12;fontColor=default;fillColor=none;gradientColor=none;" parent="bguLub1_RLqBDySIkXRc-378" vertex="1">
          <mxGeometry x="5" y="2" width="40" height="23" as="geometry" />
        </mxCell>
        <mxCell id="bguLub1_RLqBDySIkXRc-380" value="Asis" style="text;html=1;align=center;verticalAlign=middle;resizable=0;points=[];autosize=1;strokeColor=none;fillColor=none;fontFamily=Helvetica;fontSize=12;fontColor=default;" parent="bguLub1_RLqBDySIkXRc-378" vertex="1">
          <mxGeometry width="50" height="30" as="geometry" />
        </mxCell>
        <mxCell id="bguLub1_RLqBDySIkXRc-384" value="" style="group" parent="1" vertex="1" connectable="0">
          <mxGeometry x="950" y="480" width="50" height="30" as="geometry" />
        </mxCell>
        <mxCell id="bguLub1_RLqBDySIkXRc-385" value="" style="ellipse;whiteSpace=wrap;html=1;pointerEvents=0;align=center;verticalAlign=top;fontFamily=Helvetica;fontSize=12;fontColor=default;fillColor=none;gradientColor=none;" parent="bguLub1_RLqBDySIkXRc-384" vertex="1">
          <mxGeometry x="5" y="2" width="40" height="23" as="geometry" />
        </mxCell>
        <mxCell id="bguLub1_RLqBDySIkXRc-386" value="Blok" style="text;html=1;align=center;verticalAlign=middle;resizable=0;points=[];autosize=1;strokeColor=none;fillColor=none;fontFamily=Helvetica;fontSize=12;fontColor=default;" parent="bguLub1_RLqBDySIkXRc-384" vertex="1">
          <mxGeometry width="50" height="30" as="geometry" />
        </mxCell>
        <mxCell id="bguLub1_RLqBDySIkXRc-387" value="" style="endArrow=none;html=1;rounded=0;fontFamily=Helvetica;fontSize=12;fontColor=default;entryX=1;entryY=1;entryDx=0;entryDy=0;exitX=0.394;exitY=0.089;exitDx=0;exitDy=0;exitPerimeter=0;" parent="1" source="bguLub1_RLqBDySIkXRc-380" target="bguLub1_RLqBDySIkXRc-347" edge="1">
          <mxGeometry width="50" height="50" relative="1" as="geometry">
            <mxPoint x="935" y="555.8" as="sourcePoint" />
            <mxPoint x="980.76" y="500.00000000000006" as="targetPoint" />
          </mxGeometry>
        </mxCell>
        <mxCell id="bguLub1_RLqBDySIkXRc-388" value="" style="endArrow=none;html=1;rounded=0;fontFamily=Helvetica;fontSize=12;fontColor=default;exitX=0.499;exitY=0.062;exitDx=0;exitDy=0;exitPerimeter=0;entryX=0.995;entryY=0.59;entryDx=0;entryDy=0;entryPerimeter=0;" parent="1" target="bguLub1_RLqBDySIkXRc-347" edge="1">
          <mxGeometry width="50" height="50" relative="1" as="geometry">
            <mxPoint x="959" y="488" as="sourcePoint" />
            <mxPoint x="940" y="469.9999999999998" as="targetPoint" />
          </mxGeometry>
        </mxCell>
        <mxCell id="bguLub1_RLqBDySIkXRc-389" value="" style="endArrow=none;html=1;rounded=0;fontFamily=Helvetica;fontSize=12;fontColor=default;entryX=1;entryY=0.25;entryDx=0;entryDy=0;exitX=0.068;exitY=0.592;exitDx=0;exitDy=0;exitPerimeter=0;" parent="1" source="bguLub1_RLqBDySIkXRc-383" target="bguLub1_RLqBDySIkXRc-347" edge="1">
          <mxGeometry width="50" height="50" relative="1" as="geometry">
            <mxPoint x="1009" y="528" as="sourcePoint" />
            <mxPoint x="1019" y="514" as="targetPoint" />
          </mxGeometry>
        </mxCell>
        <mxCell id="bguLub1_RLqBDySIkXRc-391" value="" style="group" parent="1" vertex="1" connectable="0">
          <mxGeometry x="480" y="692" width="50" height="30" as="geometry" />
        </mxCell>
        <mxCell id="bguLub1_RLqBDySIkXRc-392" value="" style="ellipse;whiteSpace=wrap;html=1;pointerEvents=0;align=center;verticalAlign=top;fontFamily=Helvetica;fontSize=12;fontColor=default;fillColor=none;gradientColor=none;" parent="bguLub1_RLqBDySIkXRc-391" vertex="1">
          <mxGeometry x="5" y="2" width="40" height="23" as="geometry" />
        </mxCell>
        <mxCell id="bguLub1_RLqBDySIkXRc-393" value="&lt;u&gt;IdU&lt;/u&gt;" style="text;html=1;align=center;verticalAlign=middle;resizable=0;points=[];autosize=1;strokeColor=none;fillColor=none;fontFamily=Helvetica;fontSize=12;fontColor=default;" parent="bguLub1_RLqBDySIkXRc-391" vertex="1">
          <mxGeometry x="5" width="40" height="30" as="geometry" />
        </mxCell>
        <mxCell id="bguLub1_RLqBDySIkXRc-394" value="" style="group" parent="1" vertex="1" connectable="0">
          <mxGeometry x="571.5" y="692" width="50" height="35" as="geometry" />
        </mxCell>
        <mxCell id="bguLub1_RLqBDySIkXRc-395" value="" style="ellipse;whiteSpace=wrap;html=1;pointerEvents=0;align=center;verticalAlign=top;fontFamily=Helvetica;fontSize=12;fontColor=default;fillColor=none;gradientColor=none;" parent="bguLub1_RLqBDySIkXRc-394" vertex="1">
          <mxGeometry x="5.25" y="-1" width="40" height="23" as="geometry" />
        </mxCell>
        <mxCell id="bguLub1_RLqBDySIkXRc-400" value="RezD" style="text;html=1;align=center;verticalAlign=middle;resizable=0;points=[];autosize=1;strokeColor=none;fillColor=none;fontFamily=Helvetica;fontSize=12;fontColor=default;" parent="bguLub1_RLqBDySIkXRc-394" vertex="1">
          <mxGeometry y="-4.5" width="50" height="30" as="geometry" />
        </mxCell>
        <mxCell id="bguLub1_RLqBDySIkXRc-397" value="" style="group" parent="1" vertex="1" connectable="0">
          <mxGeometry x="529" y="690" width="50" height="30" as="geometry" />
        </mxCell>
        <mxCell id="bguLub1_RLqBDySIkXRc-398" value="" style="ellipse;whiteSpace=wrap;html=1;pointerEvents=0;align=center;verticalAlign=top;fontFamily=Helvetica;fontSize=12;fontColor=default;fillColor=none;gradientColor=none;" parent="bguLub1_RLqBDySIkXRc-397" vertex="1">
          <mxGeometry x="5" y="2" width="40" height="23" as="geometry" />
        </mxCell>
        <mxCell id="bguLub1_RLqBDySIkXRc-399" value="DatU" style="text;html=1;align=center;verticalAlign=middle;resizable=0;points=[];autosize=1;strokeColor=none;fillColor=none;fontFamily=Helvetica;fontSize=12;fontColor=default;" parent="bguLub1_RLqBDySIkXRc-397" vertex="1">
          <mxGeometry width="50" height="30" as="geometry" />
        </mxCell>
        <mxCell id="bguLub1_RLqBDySIkXRc-401" value="" style="endArrow=none;html=1;rounded=0;fontFamily=Helvetica;fontSize=12;fontColor=default;entryX=0.25;entryY=1;entryDx=0;entryDy=0;" parent="1" target="bguLub1_RLqBDySIkXRc-47" edge="1">
          <mxGeometry width="50" height="50" relative="1" as="geometry">
            <mxPoint x="515" y="694" as="sourcePoint" />
            <mxPoint x="565" y="644" as="targetPoint" />
          </mxGeometry>
        </mxCell>
        <mxCell id="bguLub1_RLqBDySIkXRc-402" value="" style="endArrow=none;html=1;rounded=0;fontFamily=Helvetica;fontSize=12;fontColor=default;entryX=0.762;entryY=0.998;entryDx=0;entryDy=0;entryPerimeter=0;" parent="1" target="bguLub1_RLqBDySIkXRc-47" edge="1">
          <mxGeometry width="50" height="50" relative="1" as="geometry">
            <mxPoint x="602" y="691.5" as="sourcePoint" />
            <mxPoint x="610" y="647.5" as="targetPoint" />
          </mxGeometry>
        </mxCell>
        <mxCell id="bguLub1_RLqBDySIkXRc-403" value="" style="endArrow=none;html=1;rounded=0;fontFamily=Helvetica;fontSize=12;fontColor=default;entryX=0.25;entryY=1;entryDx=0;entryDy=0;" parent="1" edge="1">
          <mxGeometry width="50" height="50" relative="1" as="geometry">
            <mxPoint x="561" y="692" as="sourcePoint" />
            <mxPoint x="569" y="648" as="targetPoint" />
          </mxGeometry>
        </mxCell>
        <mxCell id="bguLub1_RLqBDySIkXRc-408" value="" style="group" parent="1" vertex="1" connectable="0">
          <mxGeometry x="620" y="695" width="50" height="35" as="geometry" />
        </mxCell>
        <mxCell id="bguLub1_RLqBDySIkXRc-409" value="" style="ellipse;whiteSpace=wrap;html=1;pointerEvents=0;align=center;verticalAlign=top;fontFamily=Helvetica;fontSize=12;fontColor=default;fillColor=none;gradientColor=none;" parent="bguLub1_RLqBDySIkXRc-408" vertex="1">
          <mxGeometry x="5.25" y="-1" width="40" height="23" as="geometry" />
        </mxCell>
        <mxCell id="bguLub1_RLqBDySIkXRc-410" value="RezG" style="text;html=1;align=center;verticalAlign=middle;resizable=0;points=[];autosize=1;strokeColor=none;fillColor=none;fontFamily=Helvetica;fontSize=12;fontColor=default;" parent="bguLub1_RLqBDySIkXRc-408" vertex="1">
          <mxGeometry y="-4.5" width="50" height="30" as="geometry" />
        </mxCell>
        <mxCell id="bguLub1_RLqBDySIkXRc-411" value="" style="endArrow=none;html=1;rounded=0;fontFamily=Helvetica;fontSize=12;fontColor=default;entryX=0.835;entryY=1.023;entryDx=0;entryDy=0;entryPerimeter=0;exitX=0.4;exitY=-0.017;exitDx=0;exitDy=0;exitPerimeter=0;" parent="1" target="bguLub1_RLqBDySIkXRc-47" edge="1">
          <mxGeometry width="50" height="50" relative="1" as="geometry">
            <mxPoint x="642" y="693.99" as="sourcePoint" />
            <mxPoint x="622.08" y="653.7600000000002" as="targetPoint" />
          </mxGeometry>
        </mxCell>
        <mxCell id="ZqTl72pwCuOuN0OfuVFF-3" value="" style="ellipse;whiteSpace=wrap;html=1;pointerEvents=0;align=center;verticalAlign=top;fontFamily=Helvetica;fontSize=12;fontColor=default;fillColor=none;gradientColor=none;" parent="1" vertex="1">
          <mxGeometry x="840" y="852" width="40" height="23" as="geometry" />
        </mxCell>
        <mxCell id="ZqTl72pwCuOuN0OfuVFF-4" value="" style="endArrow=none;html=1;rounded=0;fontFamily=Helvetica;fontSize=12;fontColor=default;exitX=0.24;exitY=-0.022;exitDx=0;exitDy=0;exitPerimeter=0;" parent="1" source="ZqTl72pwCuOuN0OfuVFF-3" edge="1">
          <mxGeometry width="50" height="50" relative="1" as="geometry">
            <mxPoint x="830" y="854" as="sourcePoint" />
            <mxPoint x="840" y="840" as="targetPoint" />
          </mxGeometry>
        </mxCell>
        <mxCell id="ZqTl72pwCuOuN0OfuVFF-6" value="NazA" style="text;html=1;align=center;verticalAlign=middle;resizable=0;points=[];autosize=1;strokeColor=none;fillColor=none;" parent="1" vertex="1">
          <mxGeometry x="835" y="848.5" width="50" height="30" as="geometry" />
        </mxCell>
        <mxCell id="bguLub1_RLqBDySIkXRc-382" value="" style="ellipse;whiteSpace=wrap;html=1;pointerEvents=0;align=center;verticalAlign=top;fontFamily=Helvetica;fontSize=12;fontColor=default;fillColor=none;gradientColor=none;" parent="1" vertex="1">
          <mxGeometry x="950" y="452" width="40" height="23" as="geometry" />
        </mxCell>
        <mxCell id="bguLub1_RLqBDySIkXRc-383" value="Ukrl" style="text;html=1;align=center;verticalAlign=middle;resizable=0;points=[];autosize=1;strokeColor=none;fillColor=none;fontFamily=Helvetica;fontSize=12;fontColor=default;" parent="1" vertex="1">
          <mxGeometry x="950" y="450" width="40" height="30" as="geometry" />
        </mxCell>
        <mxCell id="XA_54IxqnKkXPmQBRb8S-1" style="edgeStyle=orthogonalEdgeStyle;rounded=0;orthogonalLoop=1;jettySize=auto;html=1;shape=link;" parent="1" source="bguLub1_RLqBDySIkXRc-344" edge="1">
          <mxGeometry relative="1" as="geometry">
            <mxPoint x="800" y="485" as="targetPoint" />
          </mxGeometry>
        </mxCell>
        <mxCell id="XA_54IxqnKkXPmQBRb8S-5" style="edgeStyle=orthogonalEdgeStyle;rounded=0;orthogonalLoop=1;jettySize=auto;html=1;entryX=0.923;entryY=1;entryDx=0;entryDy=0;entryPerimeter=0;" parent="1" source="ZqTl72pwCuOuN0OfuVFF-19" target="bguLub1_RLqBDySIkXRc-30" edge="1">
          <mxGeometry relative="1" as="geometry" />
        </mxCell>
        <mxCell id="XA_54IxqnKkXPmQBRb8S-6" style="edgeStyle=orthogonalEdgeStyle;rounded=0;orthogonalLoop=1;jettySize=auto;html=1;" parent="1" source="bguLub1_RLqBDySIkXRc-78" target="bguLub1_RLqBDySIkXRc-47" edge="1">
          <mxGeometry relative="1" as="geometry" />
        </mxCell>
        <mxCell id="XA_54IxqnKkXPmQBRb8S-8" value="(0,N)" style="text;html=1;align=center;verticalAlign=middle;resizable=0;points=[];autosize=1;strokeColor=none;fillColor=none;" parent="1" vertex="1">
          <mxGeometry x="470" y="380" width="50" height="30" as="geometry" />
        </mxCell>
        <mxCell id="XA_54IxqnKkXPmQBRb8S-9" value="(0,N)" style="text;html=1;align=center;verticalAlign=middle;resizable=0;points=[];autosize=1;strokeColor=none;fillColor=none;" parent="1" vertex="1">
          <mxGeometry x="510" y="390" width="50" height="30" as="geometry" />
        </mxCell>
        <mxCell id="XA_54IxqnKkXPmQBRb8S-10" value="(0,N)" style="text;html=1;align=center;verticalAlign=middle;resizable=0;points=[];autosize=1;strokeColor=none;fillColor=none;" parent="1" vertex="1">
          <mxGeometry x="560" y="580" width="50" height="30" as="geometry" />
        </mxCell>
        <mxCell id="bguLub1_RLqBDySIkXRc-351" value="(0,1)" style="text;html=1;align=center;verticalAlign=middle;resizable=0;points=[];autosize=1;strokeColor=none;fillColor=none;" parent="1" vertex="1">
          <mxGeometry x="610" y="450" width="50" height="30" as="geometry" />
        </mxCell>
        <mxCell id="XA_54IxqnKkXPmQBRb8S-14" value="TipOs" style="ellipse;whiteSpace=wrap;html=1;" parent="1" vertex="1">
          <mxGeometry x="199" y="-22" width="40" height="22" as="geometry" />
        </mxCell>
        <mxCell id="XA_54IxqnKkXPmQBRb8S-17" value="" style="endArrow=none;html=1;rounded=0;exitX=0.086;exitY=-0.043;exitDx=0;exitDy=0;exitPerimeter=0;entryX=0;entryY=0.5;entryDx=0;entryDy=0;" parent="1" target="XA_54IxqnKkXPmQBRb8S-14" edge="1">
          <mxGeometry width="50" height="50" relative="1" as="geometry">
            <mxPoint x="180" y="-11.25" as="sourcePoint" />
            <mxPoint x="198" y="-33.75" as="targetPoint" />
          </mxGeometry>
        </mxCell>
        <mxCell id="6oy-6DxJcJKx9589yAFW-1" value="" style="group" parent="1" vertex="1" connectable="0">
          <mxGeometry x="1280" y="80" width="55" height="30" as="geometry" />
        </mxCell>
        <mxCell id="6oy-6DxJcJKx9589yAFW-2" value="" style="ellipse;whiteSpace=wrap;html=1;pointerEvents=0;align=center;verticalAlign=top;fontFamily=Helvetica;fontSize=12;fontColor=default;fillColor=none;gradientColor=none;" parent="6oy-6DxJcJKx9589yAFW-1" vertex="1">
          <mxGeometry x="5" y="2" width="40" height="23" as="geometry" />
        </mxCell>
        <mxCell id="6oy-6DxJcJKx9589yAFW-3" value="NoviT" style="text;html=1;align=center;verticalAlign=middle;resizable=0;points=[];autosize=1;strokeColor=none;fillColor=none;fontFamily=Helvetica;fontSize=12;fontColor=default;" parent="6oy-6DxJcJKx9589yAFW-1" vertex="1">
          <mxGeometry width="50" height="30" as="geometry" />
        </mxCell>
        <mxCell id="6oy-6DxJcJKx9589yAFW-4" value="" style="endArrow=none;html=1;rounded=0;fontFamily=Helvetica;fontSize=12;fontColor=default;exitX=0.499;exitY=0.062;exitDx=0;exitDy=0;exitPerimeter=0;" parent="6oy-6DxJcJKx9589yAFW-1" edge="1">
          <mxGeometry width="50" height="50" relative="1" as="geometry">
            <mxPoint x="7" y="39" as="sourcePoint" />
            <mxPoint x="17" y="25" as="targetPoint" />
          </mxGeometry>
        </mxCell>
        <mxCell id="cpvrKMLTSyESbKObGgSS-2" value="TipOs" style="text;html=1;align=center;verticalAlign=middle;resizable=0;points=[];autosize=1;strokeColor=none;fillColor=none;" vertex="1" parent="1">
          <mxGeometry x="20" y="188" width="60" height="30" as="geometry" />
        </mxCell>
        <mxCell id="cpvrKMLTSyESbKObGgSS-13" value="" style="group" vertex="1" connectable="0" parent="1">
          <mxGeometry x="118" y="240" width="10" height="80" as="geometry" />
        </mxCell>
        <mxCell id="bguLub1_RLqBDySIkXRc-15" style="edgeStyle=orthogonalEdgeStyle;rounded=0;orthogonalLoop=1;jettySize=auto;html=1;strokeWidth=1;targetPerimeterSpacing=1;shape=link;sourcePerimeterSpacing=0;shadow=0;flowAnimation=0;startArrow=none;startFill=0;" parent="cpvrKMLTSyESbKObGgSS-13" edge="1">
          <mxGeometry relative="1" as="geometry">
            <mxPoint x="5.072857142857345" y="69.18918918918918" as="targetPoint" />
            <mxPoint x="5" as="sourcePoint" />
          </mxGeometry>
        </mxCell>
        <mxCell id="cpvrKMLTSyESbKObGgSS-6" value="" style="triangle;whiteSpace=wrap;html=1;rotation=90;fillColor=#E6D0DE;" vertex="1" parent="cpvrKMLTSyESbKObGgSS-13">
          <mxGeometry y="69.18918918918918" width="10" height="10.81081081081081" as="geometry" />
        </mxCell>
        <mxCell id="bguLub1_RLqBDySIkXRc-20" value="" style="group" parent="1" vertex="1" connectable="0">
          <mxGeometry x="70" y="160" width="100" height="90" as="geometry" />
        </mxCell>
        <mxCell id="bguLub1_RLqBDySIkXRc-18" value="" style="rhombus;whiteSpace=wrap;html=1;" parent="bguLub1_RLqBDySIkXRc-20" vertex="1">
          <mxGeometry width="100" height="90" as="geometry" />
        </mxCell>
        <mxCell id="bguLub1_RLqBDySIkXRc-19" value="IS-A" style="rhombus;whiteSpace=wrap;html=1;" parent="bguLub1_RLqBDySIkXRc-20" vertex="1">
          <mxGeometry x="12.5" y="11.25" width="75" height="67.5" as="geometry" />
        </mxCell>
        <mxCell id="cpvrKMLTSyESbKObGgSS-17" value="" style="triangle;whiteSpace=wrap;html=1;rotation=-90;" vertex="1" parent="1">
          <mxGeometry x="447.5" y="-5" width="10" height="15" as="geometry" />
        </mxCell>
        <mxCell id="cpvrKMLTSyESbKObGgSS-18" value="" style="triangle;whiteSpace=wrap;html=1;rotation=90;" vertex="1" parent="1">
          <mxGeometry x="449.5" y="306" width="10" height="15" as="geometry" />
        </mxCell>
        <mxCell id="cpvrKMLTSyESbKObGgSS-23" value="" style="triangle;whiteSpace=wrap;html=1;rotation=0;" vertex="1" parent="1">
          <mxGeometry x="800" y="477.5" width="10" height="15" as="geometry" />
        </mxCell>
      </root>
    </mxGraphModel>
  </diagram>
</mxfile>
